<?xml version="1.0" encoding="utf-8"?>
<!-- Generator: Adobe Illustrator 27.5.0, SVG Export Plug-In . SVG Version: 6.00 Build 0)  -->
<svg version="1.1" id="Layer_1" xmlns="http://www.w3.org/2000/svg" xmlns:xlink="http://www.w3.org/1999/xlink" x="0px" y="0px"
	 viewBox="0 0 5000 2916" style="enable-background:new 0 0 5000 2916;" xml:space="preserve">
<g>
	<g>
		<defs>
			<rect id="SVGID_1_" x="0" y="0" width="5000" height="2916"/>
		</defs>
		<clipPath id="SVGID_00000088093788592578823850000000982133477616946854_">
			<use xlink:href="#SVGID_1_"  style="overflow:visible;"/>
		</clipPath>
		
			<linearGradient id="SVGID_00000129908721971199230910000010807750390850341028_" gradientUnits="userSpaceOnUse" x1="657.1156" y1="3650.5361" x2="3786.4683" y2="-72.5509">
			<stop  offset="0" style="stop-color:#000066"/>
			<stop  offset="0.49" style="stop-color:#13C9F2"/>
			<stop  offset="1" style="stop-color:#66FFCC"/>
		</linearGradient>
		
			<rect x="0" y="0" style="clip-path:url(#SVGID_00000088093788592578823850000000982133477616946854_);fill:url(#SVGID_00000129908721971199230910000010807750390850341028_);" width="5000" height="2916"/>
	</g>
	<path style="fill:#FFFFFF;" d="M3744.702,1389.365l7.662-5.381c-5.205,3.403-10.41,6.807-15.618,10.208L3744.702,1389.365z
		 M3813.631,1342.595l7.536-5.717l-15.457,10.892l-0.14,0.097L3813.631,1342.595z M3781.08,1367.273
		c6.656-5.04,13.31-10.083,19.958-15.123l-12.433,8.134l-9.192,6.015c-6.87,4.837-13.743,9.674-20.619,14.511l14.106-8.568
		L3781.08,1367.273z M3878.976,1294.884l7.517-6.133c-5.204,3.935-10.413,7.874-15.621,11.815L3878.976,1294.884z
		 M3848.153,1320.047l19.054-15.562c-6.922,4.859-13.845,9.728-20.773,14.603l-19.685,14.93
		C3833.888,1329.359,3841.021,1324.698,3848.153,1320.047z M3817.073,1345.424c7.696-6.281,15.389-12.563,23.076-18.842
		c-8.64,5.641-17.28,11.29-25.928,16.945c-7.993,6.063-15.989,12.126-23.991,18.189
		C3799.181,1356.281,3808.131,1350.847,3817.073,1345.424z M3941.116,1246.254c2.481-2.169,4.96-4.339,7.441-6.505
		c-5.182,4.188-10.361,8.376-15.548,12.579C3935.713,1250.301,3938.413,1248.278,3941.116,1246.254z M3911.839,1271.898
		c6.099-5.351,12.193-10.694,18.284-16.027c-6.629,4.975-13.262,9.964-19.896,14.966c-6.311,5.133-12.624,10.273-18.942,15.421
		C3898.139,1281.461,3904.991,1276.675,3911.839,1271.898z M3882.445,1297.721c7.322-6.437,14.642-12.868,21.953-19.289
		c-8.256,5.766-16.517,11.55-24.778,17.343c-7.606,6.207-15.221,12.421-22.835,18.639
		C3865.34,1308.838,3873.895,1303.273,3882.445,1297.721z M3852.745,1323.829l15.976-14.043l7.988-7.024
		c-9.306,6.049-18.614,12.113-27.928,18.187l-2.684,2.195c-7.419,6.058-14.842,12.12-22.267,18.184
		C3833.471,1335.484,3843.109,1329.651,3852.745,1323.829z M4000.329,1196.746c2.466-2.303,4.928-4.596,7.393-6.894
		c-5.138,4.428-10.28,8.863-15.424,13.315C3994.975,1201.023,3997.653,1198.882,4000.329,1196.746z M3972.505,1222.837
		c5.85-5.5,11.698-10.986,17.542-16.463c-6.378,5.105-12.761,10.221-19.144,15.356c-6.067,5.276-12.136,10.562-18.206,15.862
		C3959.303,1232.66,3965.905,1227.742,3972.505,1222.837z M3944.615,1249.115c6.989-6.599,13.979-13.187,20.959-19.757
		c-7.906,5.89-15.818,11.796-23.732,17.724c-7.271,6.356-14.542,12.728-21.821,19.107
		C3928.223,1260.475,3936.419,1254.789,3944.615,1249.115z M3916.482,1275.695c7.604-7.191,15.202-14.375,22.794-21.544
		c-8.913,6.177-17.829,12.385-26.75,18.607c-7.907,6.938-15.818,13.891-23.739,20.851
		C3898.022,1287.622,3907.255,1281.648,3916.482,1275.695z M3888.189,1302.469l5.961-5.642l17.98-17.014
		c-9.668,6.242-19.342,12.503-29.02,18.788l-13.663,12.01l-11.38,10.004C3868.115,1314.549,3878.154,1308.497,3888.189,1302.469z
		 M4056.769,1146.475c2.424-2.42,4.848-4.839,7.273-7.251c-5.09,4.664-10.18,9.35-15.27,14.043
		C4051.438,1151.001,4054.103,1148.729,4056.769,1146.475z M4030.294,1172.98c5.602-5.627,11.2-11.244,16.796-16.839
		c-6.14,5.219-12.28,10.459-18.424,15.718c-5.813,5.395-11.629,10.806-17.45,16.231
		C4017.576,1183.039,4023.936,1177.998,4030.294,1172.98z M4003.804,1199.681c6.671-6.746,13.334-13.472,19.993-20.175
		c-7.584,6.001-15.172,12.03-22.765,18.085c-6.946,6.493-13.899,13.009-20.854,19.537
		C3988.058,1211.284,3995.932,1205.47,4003.804,1199.681z M3977.129,1226.711c7.239-7.346,14.469-14.682,21.694-21.994
		c-8.537,6.294-17.077,12.619-25.62,18.968c-7.538,7.086-15.082,14.194-22.632,21.315
		C3959.427,1238.877,3968.281,1232.779,3977.129,1226.711z M3950.379,1253.917c7.576-7.717,15.15-15.418,22.71-23.1
		c-9.26,6.36-18.527,12.746-27.797,19.164c-7.92,7.479-15.852,14.972-23.788,22.474
		C3931.135,1266.252,3940.76,1260.067,3950.379,1253.917z M3923.377,1281.418c7.852-8.001,15.697-15.992,23.527-23.966
		c-9.914,6.344-19.834,12.724-29.759,19.125c-7.407,7.006-14.821,14.025-22.243,21.049l-2.338,2.213
		C3902.842,1293.674,3913.11,1287.535,3923.377,1281.418z M6.289,681.279L3.786,679.9l-1.957-0.445l2.687,1.272L6.289,681.279z
		 M4110.497,1095.6c2.463-2.615,4.925-5.219,7.385-7.826c-5.109,4.97-10.215,9.948-15.329,14.955
		C4105.202,1100.345,4107.848,1097.977,4110.497,1095.6z M4085.378,1122.398c5.417-5.809,10.832-11.588,16.241-17.357
		c-5.948,5.365-11.901,10.763-17.854,16.176c-5.58,5.511-11.165,11.052-16.75,16.607
		C4073.139,1132.662,4079.26,1127.513,4085.378,1122.398z M4060.243,1149.474c6.383-6.897,12.759-13.772,19.131-20.618
		c-7.289,6.115-14.582,12.26-21.877,18.445c-6.653,6.632-13.313,13.294-19.974,19.974
		C4045.102,1161.308,4052.675,1155.375,4060.243,1149.474z M4034.938,1176.921c6.889-7.495,13.772-14.965,20.648-22.41
		c-8.18,6.394-16.368,12.828-24.558,19.289c-7.187,7.222-14.38,14.47-21.58,21.738
		C4017.948,1189.302,4026.446,1183.093,4034.938,1176.921z M4009.578,1204.563c7.206-7.874,14.404-15.724,21.593-23.553
		c-8.878,6.467-17.759,12.964-26.648,19.5c-7.541,7.628-15.093,15.275-22.648,22.944
		C3991.114,1217.126,4000.348,1210.821,4009.578,1204.563z M3984.053,1232.506c7.444-8.158,14.88-16.301,22.307-24.421
		c-9.503,6.452-19.011,12.948-28.525,19.475c-7.769,7.89-15.548,15.8-23.333,23.723
		C3964.357,1244.992,3974.21,1238.734,3984.053,1232.506z M3958.394,1260.654c7.628-8.37,15.247-16.731,22.854-25.073
		c-10.055,6.369-20.116,12.765-30.182,19.202c-7.988,8.129-15.984,16.277-23.988,24.434
		C3937.521,1273,3947.96,1266.807,3958.394,1260.654z M14.452,683.831l-3.753-2.351l-3.033-0.694l3.882,2.135L14.452,683.831z
		 M20.457,687.583l-2.327-1.454l-1.732-0.541l2.53,1.391L20.457,687.583z M4162.004,1043.827c2.283-2.58,4.572-5.181,6.856-7.75
		c-4.911,5.062-9.823,10.153-14.737,15.264C4156.751,1048.835,4159.379,1046.318,4162.004,1043.827z M4138.024,1071.071
		c5.13-5.862,10.261-11.712,15.389-17.526c-5.645,5.384-11.289,10.792-16.936,16.232c-5.366,5.631-10.734,11.282-16.105,16.961
		C4126.259,1081.481,4132.142,1076.271,4138.024,1071.071z M4114.017,1098.632c6.078-7.017,12.15-14.005,18.216-20.956
		c-6.979,6.193-13.962,12.433-20.949,18.696c-6.354,6.746-12.709,13.523-19.071,20.328
		C4099.484,1110.642,4106.752,1104.617,4114.017,1098.632z M4090.078,1126.385c6.551-7.622,13.096-15.218,19.634-22.777
		c-7.858,6.493-15.721,13.028-23.586,19.602c-6.839,7.333-13.684,14.703-20.533,22.099
		C4073.759,1138.958,4081.92,1132.652,4090.078,1126.385z M4066.048,1154.447c6.861-8.037,13.715-16.043,20.562-24.018
		c-8.534,6.57-17.072,13.191-25.614,19.852c-7.176,7.757-14.36,15.55-21.552,23.364
		C4048.316,1167.204,4057.186,1160.799,4066.048,1154.447z M4041.884,1182.816c7.064-8.315,14.122-16.604,21.168-24.862
		c-9.119,6.548-18.246,13.147-27.373,19.783c-7.384,8.032-14.777,16.088-22.175,24.17
		C4022.969,1195.503,4032.429,1189.14,4041.884,1182.816z M4017.644,1211.39c7.219-8.524,14.433-17.034,21.634-25.509
		c-9.655,6.467-19.312,12.969-28.974,19.521c-7.569,8.269-15.15,16.572-22.735,24.884
		C3997.599,1223.949,4007.625,1217.643,4017.644,1211.39z M3993.238,1240.228c7.365-8.705,14.722-17.402,22.064-26.072
		c-10.175,6.358-20.354,12.765-30.539,19.204c-7.703,8.446-15.421,16.912-23.147,25.388
		C3972.164,1252.536,3982.704,1246.365,3993.238,1240.228z M15.237,681.39l-5.147-3.603c-1.401-0.203-2.749-0.381-4.145-0.585
		l5.19,3.253C12.512,680.772,13.854,681.073,15.237,681.39z M22.159,686.238c-1.54-1.075-3.037-2.125-4.543-3.181
		c-1.237-0.283-2.425-0.552-3.659-0.833l4.641,2.901C19.793,685.501,20.96,685.861,22.159,686.238z M28.815,690.875l-3.669-2.553
		c-0.963-0.304-1.891-0.59-2.854-0.894l3.801,2.374L28.815,690.875z M34.852,695.078l-2.127-1.48l-1.496-0.59l2.359,1.47
		L34.852,695.078z M4210.793,991.875c2.389-2.869,4.778-5.708,7.17-8.564c-4.906,5.349-9.811,10.716-14.718,16.122
		C4205.763,996.901,4208.277,994.395,4210.793,991.875z M4188.164,1019.239c4.992-6.074,9.985-12.116,14.971-18.131
		c-5.553,5.595-11.104,11.236-16.66,16.904c-5.162,5.749-10.329,11.536-15.494,17.345
		C4176.71,1029.957,4182.438,1024.576,4188.164,1019.239z M4165.461,1047.023c5.826-7.171,11.646-14.307,17.464-21.403
		c-6.711,6.283-13.421,12.603-20.137,18.98c-6.104,6.894-12.212,13.824-18.324,20.789
		C4151.464,1059.226,4158.467,1053.103,4165.461,1047.023z M4142.714,1075.163c6.25-7.774,12.495-15.507,18.737-23.205
		c-7.542,6.57-15.083,13.196-22.629,19.874c-6.548,7.482-13.099,14.998-19.658,22.552
		C4127.017,1087.93,4134.866,1081.516,4142.714,1075.163z M4119.897,1103.664c6.507-8.161,13.013-16.295,19.507-24.383
		c-8.205,6.661-16.414,13.382-24.625,20.15c-6.815,7.866-13.64,15.773-20.47,23.712
		C4102.842,1116.603,4111.371,1110.106,4119.897,1103.664z M4097.073,1132.383c6.694-8.448,13.38-16.866,20.059-25.246
		c-8.759,6.631-17.523,13.318-26.291,20.049c-7.008,8.153-14.022,16.347-21.044,24.564
		C4078.895,1145.241,4087.987,1138.792,4097.073,1132.383z M4074.146,1161.392c6.851-8.689,13.694-17.348,20.526-25.977
		c-9.286,6.561-18.576,13.177-27.871,19.841c-7.184,8.412-14.373,16.855-21.576,25.325
		C4054.872,1174.139,4064.513,1167.737,4074.146,1161.392z M4051.11,1190.658c6.966-8.862,13.92-17.702,20.863-26.51
		c-9.779,6.447-19.563,12.951-29.353,19.499c-7.292,8.583-14.595,17.188-21.909,25.82
		C4030.852,1203.148,4040.982,1196.884,4051.11,1190.658z M4027.956,1220.149c7.076-9.017,14.144-18.023,21.195-26.998
		c-10.252,6.312-20.516,12.674-30.782,19.083c-7.422,8.762-14.855,17.548-22.299,26.347
		C4006.705,1232.395,4017.333,1226.248,4027.956,1220.149z M15.175,677.416c-1.967-1.515-3.91-3.016-5.861-4.524
		c-1.559-0.089-3.147-0.189-4.697-0.279l5.894,4.129L15.175,677.416z M22.48,683.052c-1.861-1.433-3.69-2.845-5.528-4.266
		c-1.478-0.214-2.995-0.446-4.465-0.66c1.856,1.301,3.705,2.598,5.587,3.913C19.547,682.377,21.004,682.711,22.48,683.052z
		 M29.645,688.582c-1.72-1.324-3.39-2.615-5.074-3.914c-1.358-0.315-2.763-0.649-4.115-0.964l5.179,3.619L29.645,688.582z
		 M36.683,693.975c-1.477-1.135-2.987-2.289-4.484-3.434c-1.171-0.368-2.392-0.76-3.561-1.126l4.605,3.204L36.683,693.975z
		 M43.4,699.119l-3.518-2.693l-2.717-1.078l3.686,2.567L43.4,699.119z M49.456,703.759l-1.894-1.451l-1.248-0.589l2.154,1.499
		L49.456,703.759z M4257.688,939.016c2.401-3.061,4.804-6.093,7.207-9.135c-5.014,5.778-10.025,11.604-15.042,17.456
		C4252.464,944.558,4255.075,941.775,4257.688,939.016z M4236.061,966.791c4.738-6.131,9.473-12.216,14.206-18.282
		c-5.29,5.628-10.58,11.293-15.873,16.993c-4.89,5.775-9.781,11.591-14.674,17.43
		C4225.17,977.505,4230.614,972.139,4236.061,966.791z M4214.498,994.913c5.536-7.266,11.069-14.49,16.6-21.671
		c-6.499,6.412-12.998,12.884-19.5,19.388c-5.796,6.953-11.593,13.948-17.394,20.985
		C4200.969,1007.33,4207.733,1001.098,4214.498,994.913z M4192.904,1023.42c5.942-7.893,11.882-15.74,17.813-23.543
		c-7.249,6.652-14.498,13.363-21.75,20.119c-6.237,7.584-12.478,15.218-18.719,22.888
		C4177.803,1036.346,4185.355,1029.851,4192.904,1023.42z M4171.314,1052.229c6.183-8.296,12.363-16.547,18.535-24.756
		c-7.863,6.715-15.727,13.491-23.592,20.317c-6.489,7.99-12.986,16.024-19.488,24.099
		C4154.952,1065.278,4163.135,1058.728,4171.314,1052.229z M4149.762,1081.273c6.339-8.575,12.674-17.12,18.998-25.612
		c-8.421,6.704-16.841,13.46-25.268,20.287c-6.678,8.305-13.364,16.653-20.056,25.038
		C4132.214,1094.361,4140.992,1087.778,4149.762,1081.273z M4128.068,1110.726c6.49-8.834,12.967-17.635,19.437-26.392
		c-8.94,6.642-17.886,13.358-26.834,20.123c-6.803,8.53-13.614,17.101-20.432,25.702
		C4109.52,1123.624,4118.796,1117.144,4128.068,1110.726z M4106.346,1140.38c6.583-9.011,13.156-17.987,19.721-26.928
		c-9.406,6.521-18.815,13.101-28.228,19.739c-6.911,8.724-13.836,17.48-20.765,26.269
		C4086.837,1153.042,4096.594,1146.683,4106.346,1140.38z M4084.512,1170.301c6.687-9.18,13.359-18.329,20.021-27.445
		c-9.871,6.391-19.75,12.849-29.635,19.36c-7.019,8.902-14.047,17.829-21.088,26.786
		C4064.053,1182.716,4074.287,1176.477,4084.512,1170.301z M4062.576,1200.446c6.764-9.301,13.521-18.588,20.259-27.839
		c-10.321,6.239-20.651,12.538-30.985,18.891c-7.1,9.036-14.217,18.106-21.345,27.187
		C4041.205,1212.554,4051.895,1206.472,4062.576,1200.446z M14.693,672.124l-6.342-5.333c-1.643,0.055-3.32,0.092-4.957,0.149
		l6.326,4.884C11.357,671.915,13.048,672.03,14.693,672.124z M22.234,678.466l-6.137-5.159c-1.602-0.094-3.239-0.204-4.835-0.295
		c2.046,1.578,4.08,3.151,6.137,4.737C18.992,677.979,20.635,678.233,22.234,678.466z M29.697,684.743
		c-1.975-1.653-3.91-3.289-5.863-4.932c-1.543-0.227-3.121-0.469-4.66-0.692c1.96,1.51,3.902,3.012,5.886,4.537
		C26.585,684.009,28.163,684.389,29.697,684.743z M37.046,690.926c-1.867-1.565-3.671-3.089-5.495-4.624
		c-1.459-0.338-2.947-0.692-4.4-1.03c1.842,1.421,3.69,2.844,5.56,4.283C34.138,690.003,35.615,690.474,37.046,690.926z
		 M44.347,697.013c-1.675-1.4-3.382-2.821-5.076-4.231l-3.997-1.266l5.15,3.943L44.347,697.013z M51.441,702.93l-4.391-3.663
		l-3.429-1.358l4.506,3.449L51.441,702.93z M58.177,708.547l-3.358-2.802l-2.53-1.196l3.537,2.707L58.177,708.547z M64.187,713.557
		l-1.624-1.353l-0.979-0.539l1.894,1.45L64.187,713.557z M4302.293,885.857c2.248-3.04,4.497-6.072,6.746-9.092
		c-4.749,5.782-9.498,11.618-14.247,17.48C4297.292,891.444,4299.793,888.638,4302.293,885.857z M4281.75,913.883
		c4.517-6.215,9.029-12.394,13.546-18.533c-4.987,5.583-9.971,11.205-14.956,16.866c-4.814,6.019-9.627,12.081-14.441,18.176
		C4271.181,924.854,4276.465,919.34,4281.75,913.883z M4261.289,942.281c5.281-7.39,10.56-14.728,15.84-22.02
		c-6.202,6.437-12.402,12.926-18.604,19.482c-5.555,7.072-11.107,14.194-16.665,21.362
		C4248.337,954.773,4254.813,948.499,4261.289,942.281z M4240.875,971.03c5.645-8.007,11.286-15.959,16.923-23.862
		c-6.97,6.72-13.94,13.511-20.914,20.365c-5.929,7.671-11.86,15.399-17.794,23.167
		C4226.352,984.077,4233.615,977.523,4240.875,971.03z M4220.431,1000.193c5.87-8.421,11.73-16.794,17.588-25.114
		c-7.568,6.792-15.137,13.656-22.708,20.583c-6.175,8.107-12.358,16.263-18.541,24.461
		C4204.659,1013.415,4212.547,1006.765,4220.431,1000.193z M4199.991,1029.678c6.019-8.724,12.03-17.402,18.035-26.029
		c-8.102,6.77-16.205,13.621-24.312,20.53c-6.334,8.412-12.677,16.869-19.024,25.373
		C4183.128,1042.864,4191.561,1036.235,4199.991,1029.678z M4179.543,1059.446c6.128-8.954,12.245-17.868,18.357-26.735
		c-8.597,6.701-17.196,13.469-25.798,20.302c-6.438,8.637-12.889,17.331-19.341,26.055
		C4161.692,1072.46,4170.619,1065.923,4179.543,1059.446z M4159.089,1089.442c6.212-9.138,12.415-18.241,18.608-27.298
		c-9.046,6.577-18.095,13.206-27.148,19.916c-6.557,8.87-13.124,17.787-19.7,26.733
		C4140.27,1102.281,4149.681,1095.82,4159.089,1089.442z M4138.503,1119.802c6.313-9.33,12.612-18.626,18.901-27.883
		c-9.512,6.461-19.031,13.006-28.555,19.602c-6.632,9.031-13.275,18.099-19.927,27.196
		C4118.788,1132.351,4128.648,1126.041,4138.503,1119.802z M4117.875,1150.346c6.373-9.452,12.731-18.871,19.082-28.26
		c-9.944,6.307-19.894,12.677-29.849,19.111c-6.708,9.178-13.426,18.386-20.159,27.628
		C4097.265,1162.602,4107.575,1156.441,4117.875,1150.346z M4097.114,1181.16c6.458-9.59,12.902-19.155,19.328-28.689
		c-10.383,6.152-20.776,12.381-31.172,18.66c-6.784,9.308-13.584,18.658-20.392,28.024
		C4075.632,1193.097,4086.376,1187.097,4097.114,1181.16z M21.572,672.544c-2.192-1.992-4.37-3.971-6.554-5.954
		c-1.672,0.05-3.355,0.099-5.022,0.15l6.535,5.497C18.197,672.335,19.896,672.443,21.572,672.544z M29.243,679.514
		c-2.135-1.942-4.251-3.863-6.375-5.796c-1.643-0.1-3.296-0.204-4.933-0.301c2.124,1.787,4.235,3.566,6.373,5.36
		C25.942,679.018,27.603,679.271,29.243,679.514z M36.844,686.418c-2.068-1.876-4.097-3.724-6.143-5.583
		c-1.597-0.235-3.206-0.479-4.798-0.715c2.049,1.724,4.081,3.438,6.156,5.175C33.642,685.667,35.255,686.045,36.844,686.418z
		 M44.355,693.24c-1.981-1.792-3.902-3.542-5.842-5.305l-4.6-1.078c1.953,1.638,3.91,3.285,5.893,4.942L44.355,693.24z
		 M51.861,699.994c-1.827-1.646-3.686-3.316-5.531-4.977l-4.298-1.359c1.862,1.55,3.734,3.11,5.58,4.653L51.861,699.994z
		 M59.218,706.615l-5.009-4.506l-3.894-1.543l5.093,4.244L59.218,706.615z M66.349,713.032l-4.276-3.849l-3.288-1.555l4.4,3.667
		L66.349,713.032z M73.067,719.077l-3.155-2.842l-2.341-1.283l3.336,2.782L73.067,719.077z M79.007,724.42l-1.293-1.163
		l-0.717-0.448l1.537,1.283L79.007,724.42z M4344.789,832.374c2.262-3.243,4.523-6.473,6.786-9.694
		c-4.746,6.093-9.489,12.235-14.233,18.423C4339.823,838.179,4342.307,835.275,4344.789,832.374z M4325.32,860.594
		c4.367-6.392,8.731-12.743,13.102-19.05c-4.889,5.763-9.777,11.559-14.663,17.416l-0.23,0.302
		c-4.555,6.037-9.108,12.116-13.662,18.234C4315.016,871.825,4320.167,866.179,4325.32,860.594z M4305.918,889.25
		c5.047-7.52,10.091-14.988,15.134-22.399c-5.988,6.531-11.977,13.119-17.964,19.779c-5.32,7.194-10.643,14.441-15.964,21.741
		C4293.388,901.938,4299.655,895.562,4305.918,889.25z M4286.583,918.299c5.369-8.128,10.731-16.198,16.094-24.213
		c-6.708,6.786-13.413,13.637-20.118,20.555c-5.666,7.802-11.333,15.657-17.004,23.566
		C4272.563,931.505,4279.574,924.865,4286.583,918.299z M4267.284,947.722c5.564-8.538,11.119-17.023,16.674-25.447
		c-7.289,6.852-14.574,13.77-21.861,20.764c-5.871,8.21-11.746,16.477-17.623,24.797
		C4252.08,961.063,4259.681,954.356,4267.284,947.722z M4248.01,977.484c5.696-8.846,11.386-17.639,17.069-26.373
		c-7.799,6.824-15.597,13.707-23.398,20.682c-6.007,8.519-12.02,17.091-18.038,25.714
		C4231.769,990.755,4239.89,984.091,4248.01,977.484z M4228.76,1007.539c5.789-9.082,11.567-18.113,17.342-27.092
		c-8.282,6.76-16.568,13.59-24.856,20.502c-6.115,8.775-12.238,17.603-18.367,26.478
		C4211.51,1020.727,4220.137,1014.085,4228.76,1007.539z M4209.427,1037.996c5.877-9.297,11.743-18.547,17.604-27.747
		c-8.743,6.651-17.493,13.401-26.244,20.209c-6.194,8.978-12.393,18.004-18.604,27.074
		C4191.268,1050.949,4200.348,1044.431,4209.427,1037.996z M4190.074,1068.706c5.942-9.46,11.874-18.878,17.794-28.249
		c-9.173,6.516-18.352,13.112-27.533,19.777c-6.258,9.143-12.522,18.333-18.8,27.563
		C4171.052,1081.36,4180.565,1074.999,4190.074,1068.706z M4170.697,1099.62c6-9.59,11.984-19.145,17.957-28.656
		c-9.59,6.36-19.185,12.777-28.783,19.281c-6.337,9.322-12.686,18.685-19.043,28.083
		C4150.788,1112.023,4160.748,1105.775,4170.697,1099.62z M4151.193,1130.862c6.075-9.745,12.137-19.457,18.181-29.128
		c-10.022,6.212-20.059,12.521-30.097,18.88c-6.389,9.444-12.792,18.929-19.207,28.438
		C4130.453,1142.921,4140.828,1136.855,4151.193,1130.862z M4131.619,1162.282c6.124-9.838,12.234-19.648,18.33-29.425
		c-10.431,6.039-20.867,12.143-31.309,18.32c-6.457,9.576-12.926,19.18-19.412,28.814
		C4110.032,1174.022,4120.831,1168.113,4131.619,1162.282z M28.423,672.96c-2.257-2.196-4.497-4.382-6.746-6.571
		c-1.702,0.049-3.388,0.101-5.081,0.15l6.724,6.109L28.423,672.96z M36.216,680.551c-2.208-2.149-4.395-4.279-6.591-6.42
		c-1.678-0.103-3.342-0.203-5.012-0.305c2.195,1.994,4.373,3.978,6.578,5.979L36.216,680.551z M43.946,688.082
		c-2.151-2.091-4.258-4.151-6.388-6.223l-4.908-0.732c2.127,1.933,4.235,3.852,6.388,5.804L43.946,688.082z M51.604,695.535
		c-2.078-2.014-4.097-3.984-6.137-5.97l-4.76-1.119c2.049,1.86,4.097,3.717,6.175,5.594L51.604,695.535z M59.283,702.936
		c-1.948-1.884-3.934-3.792-5.901-5.686l-4.525-1.433c1.976,1.778,3.97,3.57,5.932,5.338L59.283,702.936z M66.849,710.23
		l-5.485-5.286l-4.229-1.679l5.541,4.985L66.849,710.23z M74.253,717.368l-4.923-4.748l-3.799-1.8l5.012,4.51L74.253,717.368z
		 M81.39,724.246l-4.127-3.976l-3.16-1.732c1.415,1.272,2.822,2.542,4.251,3.825L81.39,724.246z M88.082,730.699
		c-0.979-0.942-1.948-1.876-2.916-2.812L83,726.542c1.022,0.921,2.04,1.842,3.082,2.775L88.082,730.699z M93.907,736.313
		l-0.919-0.885l-0.376-0.262l1.233,1.102L93.907,736.313z M4385.521,778.234c2.234-3.397,4.467-6.777,6.699-10.145
		c-4.783,6.478-9.564,13.015-14.346,19.611C4380.422,784.533,4382.972,781.366,4385.521,778.234z M4366.936,806.838
		c4.175-6.497,8.348-12.947,12.526-19.349c-4.749,5.884-9.495,11.823-14.238,17.811c-4.392,6.161-8.783,12.366-13.175,18.619
		C4357.011,818.172,4361.971,812.483,4366.936,806.838z M4348.585,835.697c4.776-7.59,9.558-15.12,14.336-22.594
		c-5.777,6.61-11.548,13.293-17.32,20.033c-5.044,7.234-10.084,14.531-15.128,21.879
		C4336.509,848.506,4342.543,842.066,4348.585,835.697z M4330.298,865.002c5.08-8.211,10.153-16.361,15.227-24.443
		c-6.461,6.851-12.923,13.786-19.382,20.78c-5.374,7.866-10.751,15.795-16.124,23.782
		C4316.778,878.338,4323.537,871.627,4330.298,865.002z M4312.064,894.725c5.257-8.638,10.512-17.216,15.764-25.728
		c-7.03,6.916-14.057,13.919-21.083,20.993c-5.563,8.295-11.129,16.65-16.702,25.066
		C4297.382,908.2,4304.722,901.415,4312.064,894.725z M4293.864,924.826c5.379-8.962,10.758-17.859,16.129-26.697
		c-7.531,6.884-15.059,13.858-22.583,20.911c-5.693,8.618-11.389,17.299-17.088,26.036
		C4278.17,938.248,4286.017,931.488,4293.864,924.826z M4275.691,955.269c5.469-9.212,10.929-18.366,16.384-27.462
		c-7.988,6.803-15.978,13.694-23.968,20.665c-5.78,8.875-11.567,17.808-17.361,26.797
		C4259.063,968.521,4267.378,961.851,4275.691,955.269z M4257.535,986.013c5.534-9.413,11.056-18.775,16.577-28.078
		c-8.426,6.689-16.85,13.453-25.278,20.303c-5.848,9.085-11.703,18.225-17.567,27.415
		C4240.025,999.024,4248.781,992.481,4257.535,986.013z M4239.373,1017.038c5.584-9.581,11.164-19.113,16.733-28.592
		c-8.845,6.547-17.688,13.158-26.537,19.871c-5.915,9.281-11.841,18.614-17.775,27.994
		C4220.992,1029.803,4230.181,1023.377,4239.373,1017.038z M4221.154,1048.374c5.65-9.747,11.289-19.451,16.917-29.103
		c-9.275,6.412-18.554,12.921-27.835,19.501c-5.972,9.442-11.95,18.932-17.939,28.463
		C4201.92,1060.871,4211.541,1054.576,4221.154,1048.374z M4202.87,1079.995c5.702-9.879,11.389-19.719,17.064-29.512
		c-9.679,6.25-19.369,12.595-29.059,19.013c-6.012,9.568-12.033,19.18-18.072,28.83
		C4182.831,1092.136,4192.854,1086.032,4202.87,1079.995z M4184.543,1111.795c5.745-9.977,11.473-19.922,17.185-29.823
		c-10.074,6.079-20.153,12.221-30.241,18.458c-6.075,9.715-12.163,19.471-18.268,29.255
		C4163.667,1123.651,4174.112,1117.675,4184.543,1111.795z M4166.079,1143.903c5.814-10.113,11.61-20.196,17.39-30.238
		c-10.488,5.918-20.987,11.94-31.494,18.018c-6.121,9.817-12.257,19.673-18.411,29.555
		C4144.413,1155.383,4155.249,1149.607,4166.079,1143.903z M35.25,673.377c-2.319-2.402-4.619-4.793-6.927-7.192
		c-1.726,0.049-3.409,0.11-5.127,0.157c2.3,2.239,4.592,4.474,6.9,6.718C31.819,673.17,33.521,673.266,35.25,673.377z
		 M43.161,681.587c-2.276-2.357-4.524-4.696-6.789-7.045c-1.707-0.108-3.376-0.203-5.075-0.309c2.257,2.197,4.5,4.389,6.77,6.594
		C39.771,681.081,41.452,681.327,43.161,681.587z M51.014,689.737c-2.225-2.303-4.405-4.574-6.609-6.859
		c-1.68-0.254-3.325-0.495-5-0.747c2.2,2.144,4.378,4.271,6.602,6.434C47.683,688.958,49.333,689.34,51.014,689.737z
		 M58.807,697.817c-2.164-2.233-4.267-4.42-6.391-6.626c-1.643-0.391-3.249-0.761-4.886-1.146c2.132,2.07,4.258,4.142,6.42,6.232
		C55.574,696.794,57.175,697.298,58.807,697.817z M66.638,705.853c-2.049-2.111-4.143-4.251-6.208-6.372
		c-1.58-0.504-3.128-0.988-4.702-1.489c2.072,1.998,4.167,4.015,6.229,6.003L66.638,705.853z M74.38,713.799
		c-1.948-2-3.91-4.015-5.864-6.021l-4.475-1.772l5.904,5.69L74.38,713.799z M81.999,721.619l-5.417-5.563l-4.159-1.969l5.485,5.284
		L81.999,721.619z M89.427,729.24c-1.609-1.647-3.209-3.291-4.808-4.933l-3.702-2.031c1.629,1.57,3.255,3.14,4.901,4.72
		L89.427,729.24z M96.568,736.568c-1.329-1.357-2.636-2.701-3.945-4.047l-3.031-1.884c1.348,1.302,2.69,2.598,4.065,3.917
		L96.568,736.568z M103.208,743.384c-0.898-0.919-1.773-1.816-2.649-2.721l-1.962-1.357c0.969,0.93,1.981,1.885,2.95,2.816
		L103.208,743.384z M4424.142,724.096c2.218-3.58,4.437-7.136,6.656-10.682c-4.646,6.623-9.287,13.318-13.921,20.074
		C4419.295,730.339,4421.72,727.216,4424.142,724.096z M4406.651,752.695c4.004-6.629,8.012-13.212,12.022-19.736
		c-3.864,5.027-7.723,10.092-11.581,15.201c-0.688,0.915-1.377,1.832-2.068,2.75c-4.264,6.327-8.526,12.709-12.785,19.14
		C4397.04,764.215,4401.842,758.421,4406.651,752.695z M4389.289,781.761c4.549-7.701,9.099-15.333,13.649-22.905
		c-5.522,6.619-11.04,13.291-16.548,20.061c-4.852,7.375-9.699,14.819-14.545,22.326
		C4377.657,794.667,4383.472,788.177,4389.289,781.761z M4372.01,811.328c4.809-8.304,9.614-16.544,14.423-24.714
		c-6.229,6.903-12.45,13.897-18.671,20.968c-5.09,7.923-10.18,15.914-15.27,23.972
		C4358.995,824.721,4365.502,817.986,4372.01,811.328z M4354.793,841.347c4.981-8.762,9.96-17.457,14.939-26.08
		c-6.775,6.955-13.546,14.022-20.313,21.167c-5.268,8.367-10.536,16.798-15.808,25.303
		C4340.671,854.845,4347.73,848.06,4354.793,841.347z M4337.661,871.722c5.09-9.091,10.178-18.121,15.259-27.079
		c-7.265,6.93-14.524,13.974-21.785,21.095c-5.382,8.703-10.77,17.476-16.156,26.312
		C4322.536,885.18,4330.099,878.411,4337.661,871.722z M4320.584,902.445c5.155-9.336,10.307-18.61,15.451-27.815
		c-7.715,6.84-15.427,13.797-23.138,20.831c-5.463,8.976-10.932,18.019-16.403,27.121
		C4304.522,915.779,4312.554,909.06,4320.584,902.445z M4303.524,933.515c5.208-9.541,10.412-19.025,15.607-28.445
		c-8.147,6.729-16.293,13.581-24.437,20.502c-5.522,9.201-11.053,18.464-16.59,27.783
		C4286.58,946.656,4295.052,940.027,4303.524,933.515z M4286.45,964.945c5.259-9.723,10.51-19.392,15.75-29
		c-8.559,6.591-17.12,13.295-25.681,20.078c-5.572,9.387-11.151,18.835-16.738,28.332
		C4268.672,977.796,4277.564,971.32,4286.45,964.945z M4269.368,996.658c5.301-9.877,10.591-19.7,15.87-29.469
		c-8.96,6.437-17.924,12.977-26.889,19.6c-5.609,9.547-11.232,19.147-16.862,28.801
		C4250.783,1009.188,4260.078,1002.881,4269.368,996.658z M4252.271,1028.607c5.342-10.001,10.667-19.963,15.981-29.87
		c-9.354,6.277-18.711,12.63-28.068,19.085c-5.655,9.696-11.321,19.444-16.998,29.236
		C4232.887,1040.814,4242.583,1034.676,4252.271,1028.607z M4235.125,1060.813c5.384-10.129,10.753-20.218,16.111-30.258
		c-9.755,6.116-19.51,12.316-29.272,18.61c-5.705,9.841-11.422,19.729-17.153,29.661
		C4214.922,1072.741,4225.029,1066.721,4235.125,1060.813z M4217.877,1093.31c5.434-10.251,10.851-20.461,16.254-30.63
		c-10.147,5.947-20.302,11.999-30.462,18.122c-5.737,9.943-11.492,19.93-17.259,29.95
		C4196.907,1104.853,4207.395,1099.044,4217.877,1093.31z M4200.565,1125.971l1.894-3.573l14.475-27.313
		c-10.523,5.766-21.054,11.602-31.6,17.535c-5.796,10.075-11.608,20.182-17.439,30.325
		C4178.794,1137.21,4189.685,1131.536,4200.565,1125.971z M42.061,673.791c-2.379-2.609-4.733-5.205-7.1-7.806
		c-1.746,0.044-3.426,0.112-5.166,0.157c2.357,2.444,4.703,4.881,7.068,7.333C38.611,673.586,40.304,673.676,42.061,673.791z
		 M50.086,682.618c-2.338-2.566-4.646-5.11-6.97-7.665c-1.734-0.113-3.404-0.203-5.13-0.314c2.316,2.406,4.616,4.799,6.948,7.21
		C46.663,682.113,48.346,682.353,50.086,682.618z M58.057,691.386c-2.292-2.513-4.54-4.991-6.811-7.488
		c-1.713-0.262-3.363-0.498-5.071-0.758c2.268,2.352,4.506,4.686,6.798,7.053C54.683,690.599,56.342,690.98,58.057,691.386z
		 M65.977,700.088c-2.24-2.449-4.419-4.85-6.621-7.274c-1.683-0.396-3.304-0.768-4.985-1.166c2.206,2.281,4.408,4.564,6.641,6.867
		C62.682,699.046,64.303,699.555,65.977,700.088z M73.952,708.754c-2.14-2.335-4.327-4.7-6.478-7.041
		c-1.637-0.523-3.209-1.015-4.839-1.533c2.157,2.217,4.34,4.451,6.486,6.656L73.952,708.754z M81.85,717.339
		c-2.056-2.238-4.129-4.485-6.189-6.724c-1.574-0.628-3.093-1.226-4.662-1.851l6.21,6.377L81.85,717.339z M89.651,725.816
		l-5.82-6.323l-4.419-2.095l5.861,6.016L89.651,725.816z M97.304,734.137c-1.786-1.94-3.559-3.865-5.33-5.794l-4.081-2.239
		c1.794,1.841,3.583,3.681,5.395,5.539L97.304,734.137z M104.753,742.231c-1.575-1.703-3.121-3.386-4.671-5.075l-3.599-2.237
		c1.578,1.621,3.147,3.24,4.757,4.884L104.753,742.231z M111.873,749.97c-1.27-1.37-2.506-2.715-3.743-4.066l-2.9-2.006
		c1.32,1.345,2.702,2.735,4.025,4.084L111.873,749.97z M118.762,757.37c-0.829-0.891-1.67-1.792-2.509-2.693l-1.583-1.202
		c0.917,0.931,1.835,1.856,2.741,2.78L118.762,757.37z M4461.091,669.448c2.137-3.66,4.273-7.298,6.413-10.92
		c-4.573,6.869-9.143,13.815-13.706,20.837C4456.228,676.041,4458.658,672.734,4461.091,669.448z M4444.447,698.364
		c3.832-6.746,7.665-13.441,11.502-20.076c-4.367,5.968-8.731,11.996-13.091,18.086c-4.1,6.434-8.193,12.92-12.287,19.468
		C4435.192,709.952,4439.817,704.129,4444.447,698.364z M4428.014,727.687c4.348-7.853,8.697-15.64,13.048-23.349
		c-5.348,6.707-10.686,13.518-16.019,20.391c-4.6,7.428-9.2,14.931-13.794,22.498
		C4416.83,740.628,4422.421,734.124,4428.014,727.687z M4411.719,757.471c4.578-8.465,9.159-16.857,13.746-25.172
		c-5.98,6.923-11.955,13.944-17.924,21.052c-4.87,8.064-9.742,16.204-14.606,24.418
		C4399.19,770.912,4405.452,764.151,4411.719,757.471z M4395.516,787.722c4.714-8.889,9.428-17.703,14.144-26.441
		c-6.513,6.969-13.019,14.03-19.518,21.2c-5.022,8.505-10.044,17.089-15.066,25.745
		C4381.884,801.298,4388.698,794.464,4395.516,787.722z M4379.417,818.357c4.789-9.189,9.576-18.308,14.359-27.349
		c-6.978,6.926-13.951,13.932-20.918,21.053c-5.112,8.832-10.224,17.738-15.334,26.717
		C4364.815,831.872,4372.116,825.067,4379.417,818.357z M4363.384,849.375c4.843-9.442,9.684-18.815,14.522-28.113
		c-7.428,6.846-14.85,13.78-22.27,20.821c-5.165,9.087-10.332,18.244-15.505,27.474
		C4347.882,862.731,4355.631,856.004,4363.384,849.375z M4347.395,880.75c4.889-9.655,9.771-19.243,14.649-28.763
		c-7.85,6.729-15.694,13.547-23.538,20.477c-5.206,9.303-10.418,18.677-15.635,28.116
		C4331.043,893.869,4339.22,887.264,4347.395,880.75z M4331.433,912.458c4.927-9.839,9.844-19.617,14.755-29.327
		c-8.255,6.592-16.506,13.27-24.761,20.061c-5.242,9.495-10.491,19.053-15.749,28.675
		C4314.264,925.293,4322.847,918.834,4331.433,912.458z M4315.484,944.457c4.96-9.997,9.909-19.933,14.85-29.805
		c-8.653,6.441-17.31,12.96-25.962,19.605c-5.282,9.677-10.572,19.416-15.87,29.209
		C4297.499,957.028,4306.489,950.694,4315.484,944.457z M4299.514,976.761c4.995-10.143,9.979-20.226,14.953-30.255
		c-9.057,6.292-18.119,12.703-27.178,19.202c-5.315,9.826-10.637,19.709-15.97,29.643
		C4280.719,989.06,4290.12,982.848,4299.514,976.761z M4283.484,1009.394c5.035-10.278,10.058-20.506,15.069-30.682
		c-9.445,6.131-18.898,12.387-28.352,18.722c-5.342,9.952-10.697,19.96-16.064,30.014
		C4263.926,1021.333,4273.708,1015.314,4283.484,1009.394z M4267.419,1042.241c5.068-10.383,10.123-20.719,15.161-31.003
		c-9.821,5.954-19.65,12.006-29.483,18.159c-5.372,10.067-10.758,20.185-16.157,30.344
		C4247.106,1053.804,4257.264,1047.988,4267.419,1042.241z M4251.298,1075.286c5.106-10.472,10.193-20.905,15.264-31.293
		c-10.199,5.784-20.402,11.644-30.614,17.618c-5.425,10.205-10.864,20.453-16.32,30.741
		C4230.195,1086.579,4240.752,1080.87,4251.298,1075.286z M4235.043,1108.637l7.434-15.251l7.994-16.401
		c-10.583,5.609-21.182,11.341-31.784,17.143c-5.071,9.56-10.156,19.156-15.256,28.785l-1.164,2.197
		C4213.202,1119.525,4224.127,1114.042,4235.043,1108.637z M48.89,674.249c-2.424-2.807-4.829-5.6-7.243-8.402
		c-1.732,0.037-3.523,0.051-5.249,0.094c2.408,2.647,4.805,5.29,7.224,7.945C45.361,674.001,47.142,674.132,48.89,674.249z
		 M57.021,683.685c-2.389-2.766-4.745-5.508-7.124-8.267c-1.721-0.117-3.504-0.256-5.22-0.371c2.373,2.609,4.73,5.206,7.114,7.826
		C53.519,683.136,55.286,683.417,57.021,683.685z M65.104,693.062c-2.352-2.718-4.649-5.397-6.976-8.097
		c-1.708-0.262-3.475-0.551-5.174-0.814c2.327,2.56,4.624,5.096,6.979,7.674C61.643,692.233,63.386,692.652,65.104,693.062z
		 M73.14,702.37c-2.302-2.655-4.543-5.263-6.81-7.89c-1.683-0.401-3.423-0.826-5.098-1.224c2.273,2.493,4.538,4.977,6.84,7.495
		L73.14,702.37z M81.239,711.653c-2.214-2.546-4.476-5.128-6.7-7.679c-1.64-0.526-3.339-1.077-4.973-1.598
		c2.232,2.428,4.497,4.881,6.718,7.303L81.239,711.653z M89.275,720.858c-2.143-2.458-4.304-4.932-6.45-7.393
		c-1.591-0.633-3.242-1.294-4.827-1.924l6.478,7.041L89.275,720.858z M97.23,729.972l-6.145-7.038l-4.625-2.195l6.184,6.721
		L97.23,729.972z M105.066,738.956c-1.926-2.204-3.836-4.397-5.747-6.588l-4.357-2.385c1.929,2.098,3.853,4.193,5.801,6.304
		L105.066,738.956z M112.752,747.761c-1.764-2.014-3.497-4.004-5.233-5.998l-3.983-2.463c1.756,1.911,3.504,3.816,5.293,5.751
		L112.752,747.761z M120.225,756.317c-1.545-1.757-3.055-3.492-4.568-5.227l-3.466-2.381c1.572,1.696,3.193,3.428,4.771,5.131
		C118.06,754.671,119.124,755.486,120.225,756.317z M127.65,764.719c-1.247-1.416-2.513-2.848-3.782-4.28
		c-0.842-0.635-1.713-1.29-2.552-1.927c1.312,1.408,2.621,2.813,3.915,4.209C126.048,763.396,126.833,764.048,127.65,764.719z
		 M134.596,772.577l-2.395-2.71l-1.317-1.079l2.627,2.823L134.596,772.577z M4496.178,614.75c2.112-3.841,4.226-7.655,6.345-11.453
		c-4.509,7.124-9.008,14.338-13.5,21.642C4491.407,621.518,4493.791,618.126,4496.178,614.75z M4480.489,643.724
		c3.646-6.84,7.298-13.613,10.954-20.322c-4.224,6.049-8.442,12.166-12.65,18.352c-3.904,6.478-7.798,13.015-11.687,19.613
		c1.367-1.824,2.733-3.646,4.1-5.46C4474.298,651.813,4477.391,647.751,4480.489,643.724z M4464.957,673.285
		c4.116-7.94,8.237-15.797,12.36-23.581c-1.745,2.284-3.491,4.559-5.232,6.867c-3.361,4.453-6.718,8.946-10.072,13.477
		c-4.413,7.56-8.821,15.199-13.224,22.911C4454.169,686.308,4459.559,679.758,4464.957,673.285z M4449.631,703.245
		c4.334-8.576,8.669-17.064,13.01-25.474c-5.769,6.965-11.529,14.054-17.283,21.218c-4.63,8.156-9.256,16.393-13.879,24.714
		C4437.525,716.784,4443.572,709.96,4449.631,703.245z M4434.394,733.756c4.451-9.016,8.908-17.946,13.367-26.795
		c-6.293,7.008-12.574,14.151-18.846,21.376c-4.754,8.589-9.506,17.265-14.258,26.017
		C4421.23,747.388,4427.809,740.517,4434.394,733.756z M4419.303,764.616c4.495-9.276,8.986-18.474,13.479-27.591
		c-6.74,6.948-13.476,14.005-20.203,21.165c-4.816,8.903-9.632,17.889-14.446,26.949
		C4405.181,778.196,4412.241,771.345,4419.303,764.616z M4404.296,795.889c4.538-9.537,9.073-18.994,13.608-28.377
		c-7.181,6.862-14.358,13.846-21.526,20.929c-4.859,9.169-9.722,18.412-14.587,27.734
		C4389.289,809.309,4396.788,802.533,4404.296,795.889z M4389.344,827.553c4.576-9.761,9.146-19.448,13.713-29.057
		c-7.598,6.742-15.188,13.615-22.775,20.584c-4.896,9.396-9.793,18.867-14.696,28.412
		C4373.5,840.74,4381.421,834.081,4389.344,827.553z M4374.43,859.582c4.608-9.953,9.208-19.838,13.802-29.654
		c-7.999,6.608-15.994,13.342-23.985,20.175c-4.925,9.598-9.852,19.267-14.785,29.003
		C4357.783,872.493,4366.103,865.974,4374.43,859.582z M4359.533,891.95c4.638-10.126,9.263-20.182,13.884-30.173
		c-8.391,6.453-16.776,13.033-25.162,19.711c-4.95,9.774-9.904,19.616-14.867,29.52
		C4342.104,904.551,4350.82,898.189,4359.533,891.95z M4344.648,924.613c4.663-10.269,9.311-20.477,13.955-30.622
		c-8.772,6.292-17.542,12.698-26.314,19.212c-4.969,9.927-9.95,19.92-14.937,29.968
		C4326.451,936.878,4335.551,930.696,4344.648,924.613z M4329.75,957.552c4.687-10.396,9.362-20.734,14.024-31.013
		c-9.146,6.126-18.294,12.345-27.443,18.684c-4.992,10.062-9.996,20.185-15.01,30.359
		C4310.803,969.457,4320.276,963.467,4329.75,957.552z M4314.832,990.727c4.714-10.501,9.411-20.958,14.098-31.355
		c-9.519,5.952-19.039,11.989-28.565,18.155c-5.034,10.215-10.078,20.485-15.135,30.806
		C4295.1,1002.365,4304.969,996.485,4314.832,990.727z M4299.828,1024.214c4.757-10.633,9.5-21.225,14.228-31.756
		c-9.904,5.786-19.815,11.711-29.729,17.718c-5.057,10.322-10.131,20.694-15.218,31.11
		C4279.355,1035.496,4289.594,1029.795,4299.828,1024.214z M4284.756,1057.919c4.792-10.719,9.565-21.4,14.322-32.029
		c-10.269,5.608-20.542,11.333-30.825,17.153c-5.087,10.41-10.186,20.869-15.305,31.367
		C4263.561,1068.803,4274.163,1063.324,4284.756,1057.919z M4269.614,1091.789c4.439-9.926,8.858-19.817,13.264-29.667l1.158-2.591
		c-10.628,5.43-21.262,10.933-31.911,16.565l-8.661,17.771l-6.808,13.967C4247.653,1102.397,4258.641,1097.024,4269.614,1091.789z
		 M55.733,674.736c-2.476-3.012-4.928-6.009-7.395-9.012c-1.748,0.036-3.528,0.058-5.271,0.096c2.454,2.848,4.898,5.687,7.36,8.537
		C52.177,674.476,53.975,674.614,55.733,674.736z M63.97,684.775c-2.441-2.968-4.852-5.913-7.282-8.874
		c-1.743-0.12-3.518-0.255-5.255-0.374c2.422,2.81,4.824,5.603,7.257,8.418C60.433,684.215,62.222,684.506,63.97,684.775z
		 M72.157,694.756c-2.406-2.925-4.76-5.804-7.146-8.709c-1.729-0.27-3.493-0.555-5.217-0.819c2.379,2.756,4.724,5.491,7.13,8.269
		C68.651,693.909,70.426,694.341,72.157,694.756z M80.308,704.67c-2.364-2.861-4.667-5.676-6.997-8.513
		c-1.713-0.408-3.458-0.833-5.162-1.239c2.329,2.693,4.651,5.381,7.008,8.099C76.855,703.562,78.604,704.125,80.308,704.67z
		 M88.523,714.556c-2.283-2.756-4.615-5.55-6.907-8.312c-1.678-0.536-3.391-1.091-5.06-1.625c2.292,2.634,4.624,5.292,6.908,7.921
		L88.523,714.556z M96.679,724.375c-2.218-2.677-4.459-5.369-6.684-8.048l-4.946-1.973l6.699,7.679L96.679,724.375z
		 M104.764,734.102l-6.416-7.719l-4.786-2.274c2.145,2.46,4.291,4.92,6.442,7.387L104.764,734.102z M112.746,743.707
		c-2.04-2.448-4.053-4.878-6.075-7.312l-4.575-2.506c2.035,2.336,4.065,4.664,6.121,7.014L112.746,743.707z M120.598,753.156
		c-1.904-2.282-3.767-4.532-5.642-6.792l-4.292-2.652c1.895,2.173,3.778,4.339,5.707,6.537
		C117.763,751.209,119.203,752.194,120.598,753.156z M128.3,762.41c-1.73-2.065-3.423-4.105-5.119-6.148l-3.902-2.685
		c1.754,2,3.553,4.03,5.317,6.037C125.816,760.539,127.076,761.484,128.3,762.41z M136.027,771.584
		c-1.504-1.795-3.03-3.603-4.556-5.411l-3.236-2.439c1.574,1.778,3.149,3.554,4.705,5.319
		C133.955,769.889,135.008,770.744,136.027,771.584z M143.466,780.416l-3.593-4.265l-2.398-1.963l3.793,4.29
		C141.991,779.12,142.741,779.775,143.466,780.416z M150.407,788.66l-2.165-2.574l-1.125-0.991l2.446,2.766L150.407,788.66z
		 M4529.577,559.873c2.042-3.946,4.088-7.876,6.137-11.772c-4.427,7.36-8.843,14.819-13.243,22.381
		C4524.833,566.918,4527.204,563.383,4529.577,559.873z M4514.781,588.957c3.463-6.929,6.938-13.793,10.415-20.586
		c-4.063,6.096-8.12,12.267-12.168,18.513c-3.748,6.582-7.49,13.23-11.221,19.951
		C4506.122,600.799,4510.446,594.84,4514.781,588.957z M4500.169,618.64c3.894-8.034,7.792-15.987,11.701-23.849
		c-4.933,6.753-9.855,13.607-14.767,20.555c-4.202,7.641-8.396,15.373-12.585,23.181
		C4489.727,631.809,4494.941,625.163,4500.169,618.64z M4485.736,648.856c4.078-8.654,8.158-17.216,12.247-25.691
		c-5.534,6.946-11.059,13.991-16.568,21.16c-4.399,8.259-8.794,16.612-13.184,25.046
		C4474.055,662.429,4479.891,655.583,4485.736,648.856z M4471.484,679.5c4.177-9.097,8.361-18.098,12.55-27.016
		c-6.067,7.018-12.122,14.18-18.165,21.429c-4.492,8.664-8.976,17.429-13.457,26.273
		C4458.761,693.184,4465.114,686.273,4471.484,679.5z M4457.359,710.605c4.218-9.393,8.437-18.691,12.661-27.908
		c-6.504,6.952-13.001,14.019-19.488,21.203c-4.552,9.008-9.097,18.105-13.643,27.287
		C4443.702,724.214,4450.524,717.336,4457.359,710.605z M4443.332,742.154c4.246-9.641,8.494-19.198,12.739-28.673
		c-6.946,6.867-13.878,13.875-20.805,20.986c-4.562,9.239-9.122,18.561-13.684,27.964
		C4428.825,755.553,4436.074,748.789,4443.332,742.154z M4429.378,774.125c4.283-9.893,8.562-19.711,12.839-29.439
		c-7.354,6.746-14.701,13.647-22.039,20.645c-4.59,9.477-9.175,19.032-13.768,28.667
		C4414.06,787.248,4421.714,780.635,4429.378,774.125z M4415.494,806.447c4.297-10.079,8.591-20.084,12.88-30.008
		c-7.742,6.593-15.475,13.322-23.206,20.166c-4.608,9.688-9.218,19.454-13.838,29.293
		C4399.38,819.288,4407.433,812.816,4415.494,806.447z M4401.653,839.1c4.315-10.243,8.624-20.415,12.926-30.511
		c-8.125,6.44-16.246,13.004-24.364,19.689c-4.627,9.878-9.259,19.824-13.9,29.845
		C4384.757,851.659,4393.205,845.323,4401.653,839.1z M4387.839,872.065c4.332-10.391,8.656-20.711,12.972-30.966
		c-8.507,6.279-17.011,12.695-25.514,19.218c-4.646,10.042-9.299,20.155-13.959,30.333
		C4370.17,884.341,4379.005,878.135,4387.839,872.065z M4374.021,905.336c4.355-10.527,8.699-20.991,13.034-31.391
		c-8.886,6.117-17.77,12.39-26.653,18.75c-4.665,10.189-9.338,20.444-14.021,30.76
		C4355.594,917.308,4364.807,911.244,4374.021,905.336z M4360.164,938.938c4.381-10.652,8.749-21.251,13.105-31.783
		c-9.254,5.944-18.508,12.039-27.763,18.224c-4.684,10.318-9.376,20.7-14.081,31.135
		C4341.006,950.542,4350.588,944.676,4360.164,938.938z M4346.277,972.778c4.408-10.759,8.799-21.464,13.175-32.113
		c-9.612,5.77-19.231,11.662-28.85,17.667c-4.703,10.429-9.42,20.921-14.149,31.462
		C4326.4,984.003,4336.341,978.341,4346.277,972.778z M4332.347,1006.828c4.435-10.849,8.854-21.652,13.253-32.398
		c-9.969,5.589-19.942,11.273-29.921,17.091c-4.736,10.554-9.489,21.161-14.258,31.815
		C4311.739,1017.72,4322.048,1012.22,4332.347,1006.828z M4318.339,1041.107l5.108-12.502l8.251-20.188
		c-10.334,5.416-20.676,10.951-31.026,16.596c-4.769,10.659-9.554,21.368-14.361,32.116
		C4296.997,1051.685,4307.675,1046.328,4318.339,1041.107z M4304.214,1075.646c4.519-11.036,9.014-22.034,13.492-32.989
		c-10.694,5.244-21.398,10.617-32.114,16.082l-1.712,3.83c-4.231,9.468-8.475,18.966-12.742,28.503
		C4282.174,1085.815,4293.201,1080.689,4304.214,1075.646z M62.557,675.221c-2.522-3.216-5.022-6.41-7.535-9.618
		c-1.765,0.033-3.537,0.059-5.293,0.094c2.503,3.048,4.99,6.088,7.501,9.143C58.997,674.964,60.785,675.096,62.557,675.221z
		 M70.902,685.867c-2.494-3.173-4.951-6.32-7.433-9.485c-1.761-0.125-3.531-0.254-5.285-0.376c2.47,3.01,4.923,6.003,7.404,9.024
		C67.349,685.303,69.132,685.589,70.902,685.867z M79.194,696.448c-2.46-3.127-4.865-6.209-7.303-9.319
		c-1.751-0.274-3.513-0.555-5.258-0.826c2.427,2.962,4.824,5.894,7.282,8.876C75.665,695.597,77.437,696.028,79.194,696.448z
		 M87.455,706.967c-2.425-3.07-4.784-6.088-7.174-9.131l-5.217-1.253c2.386,2.896,4.762,5.787,7.176,8.711L87.455,706.967z
		 M95.783,717.455c-2.346-2.964-4.746-5.972-7.1-8.944l-5.136-1.648c2.354,2.841,4.748,5.709,7.094,8.541L95.783,717.455z
		 M104.057,727.874c-2.292-2.888-4.605-5.798-6.9-8.689l-5.044-2.012c2.295,2.765,4.608,5.545,6.903,8.308L104.057,727.874z
		 M112.265,738.209l-6.657-8.383l-4.922-2.336l6.675,8.034L112.265,738.209z M120.38,748.429c-2.133-2.679-4.243-5.34-6.359-8.009
		l-4.751-2.602c2.127,2.561,4.242,5.114,6.391,7.69L120.38,748.429z M128.384,758.51c-2.019-2.534-3.997-5.03-5.986-7.541
		l-4.529-2.802c2.006,2.415,3.994,4.819,6.032,7.257L128.384,758.51z M136.276,768.425c-1.875-2.344-3.718-4.664-5.563-6.981
		l-4.232-2.912c1.891,2.26,3.82,4.55,5.72,6.82L136.276,768.425z M144.226,778.299c-1.696-2.115-3.417-4.247-5.136-6.377
		l-3.718-2.805c1.754,2.076,3.507,4.158,5.242,6.223L144.226,778.299z M151.971,787.919c-1.456-1.816-2.925-3.635-4.394-5.456
		l-3.118-2.556l4.538,5.388L151.971,787.919z M159.388,797.124l-3.363-4.173l-2.255-1.986l3.55,4.214L159.388,797.124z
		 M166.234,805.63l-1.83-2.272l-0.947-0.893c0.687,0.817,1.37,1.632,2.065,2.453L166.234,805.63z M4561.309,504.924
		c2.015-4.138,4.037-8.253,6.061-12.334c-4.375,7.647-8.731,15.423-13.075,23.305
		C4556.628,512.208,4558.965,508.549,4561.309,504.924z M4547.354,534.15c3.304-7.055,6.616-14.032,9.939-20.935
		c-3.929,6.163-7.845,12.419-11.749,18.748c-3.572,6.636-7.132,13.355-10.686,20.14
		C4539.012,546.039,4543.177,540.053,4547.354,534.15z M4533.649,563.919c3.671-8.118,7.354-16.158,11.048-24.095
		c-4.743,6.767-9.471,13.647-14.185,20.629c-3.985,7.698-7.963,15.492-11.927,23.371c2.054-2.767,4.11-5.517,6.172-8.249
		C4527.714,571.655,4530.681,567.765,4533.649,563.919z M4520.125,594.29c3.832-8.74,7.671-17.383,11.519-25.929
		c-2.004,2.618-4.01,5.227-6.009,7.878c-3.315,4.392-6.622,8.826-9.923,13.309c-4.169,8.339-8.332,16.774-12.482,25.305
		C4508.849,607.888,4514.478,601.021,4520.125,594.29z M4506.785,625.161c3.91-9.178,7.826-18.25,11.751-27.233
		c-5.829,6.983-11.64,14.081-17.436,21.31c-4.251,8.773-8.494,17.643-12.729,26.608
		C4494.494,638.836,4500.631,631.925,4506.785,625.161z M4493.588,656.533c3.956-9.522,7.917-18.951,11.884-28.284
		c-6.289,6.945-12.561,14.037-18.819,21.234c-4.272,9.073-8.542,18.248-12.808,27.507
		C4480.414,670.043,4486.997,663.232,4493.588,656.533z M4480.53,688.318c3.969-9.76,7.937-19.445,11.909-29.025
		c-6.692,6.827-13.376,13.766-20.042,20.854c-4.294,9.35-8.583,18.793-12.872,28.324
		C4466.513,701.62,4473.518,694.921,4480.53,688.318z M4467.565,720.542c3.983-9.994,7.963-19.901,11.947-29.72
		c-7.1,6.707-14.193,13.518-21.268,20.489c-4.308,9.593-8.613,19.281-12.921,29.049
		C4452.727,733.624,4460.141,727.024,4467.565,720.542z M4454.683,753.131c3.991-10.183,7.98-20.278,11.966-30.295
		c-7.487,6.563-14.969,13.231-22.438,20.047c-4.315,9.802-8.634,19.695-12.953,29.665
		C4439.059,765.945,4446.869,759.478,4454.683,753.131z M4441.868,786.078c3.997-10.351,7.994-20.626,11.982-30.816
		c-7.872,6.406-15.737,12.929-23.596,19.596c-4.318,9.984-8.643,20.048-12.971,30.187
		C4425.47,798.593,4433.667,792.272,4441.868,786.078z M4429.083,819.367c4.01-10.503,8.015-20.94,12.012-31.294
		c-8.248,6.246-16.49,12.611-24.724,19.113c-4.33,10.148-8.662,20.369-13.002,30.664
		C4411.936,831.559,4420.508,825.403,4429.083,819.367z M4416.311,852.977c4.029-10.647,8.045-21.223,12.056-31.728
		c-8.619,6.074-17.231,12.266-25.839,18.6c-4.337,10.294-8.681,20.657-13.035,31.094
		C4398.431,864.823,4407.368,858.843,4416.311,852.977z M4403.54,886.867c4.044-10.773,8.077-21.476,12.1-32.114
		c-8.978,5.903-17.956,11.913-26.932,18.071c-4.345,10.423-8.702,20.915-13.069,31.472
		C4384.938,898.35,4394.239,892.562,4403.54,886.867z M4390.751,921.019c4.062-10.88,8.112-21.701,12.15-32.453
		c-9.336,5.73-18.673,11.55-28.009,17.533c-4.37,10.564-8.756,21.2-13.15,31.885
		C4371.412,932.205,4381.083,926.549,4390.751,921.019z M4377.917,955.423c4.091-10.985,8.167-21.912,12.226-32.779
		c-9.701,5.559-19.404,11.258-29.113,17.069c-4.388,10.679-8.793,21.417-13.215,32.206
		C4357.854,966.306,4367.889,960.782,4377.917,955.423z M4365.002,990.129c4.126-11.095,8.236-22.139,12.328-33.126
		c-10.058,5.387-20.124,10.927-30.192,16.566c-4.41,10.773-8.839,21.6-13.289,32.479
		C4344.242,1000.621,4354.625,995.313,4365.002,990.129z M4352.019,1025.012c4.007-10.76,7.994-21.476,11.963-32.143l0.449-1.21
		c-10.402,5.205-20.812,10.527-31.231,15.978l-8.738,21.38l-4.638,11.356C4330.567,1035.124,4341.295,1030.022,4352.019,1025.012z
		 M4338.953,1060.062c4.193-11.233,8.363-22.423,12.512-33.567c-10.748,5.032-21.504,10.159-32.276,15.429
		c-4.486,10.976-8.988,21.992-13.516,33.056C4316.778,1069.902,4327.872,1064.902,4338.953,1060.062z M69.371,675.703
		c-2.568-3.413-5.115-6.813-7.674-10.22c-1.778,0.029-3.54,0.064-5.312,0.097c2.547,3.249,5.082,6.489,7.639,9.745
		C65.805,675.451,67.585,675.576,69.371,675.703z M77.819,686.952c-2.541-3.376-5.047-6.721-7.576-10.089
		c-1.776-0.129-3.54-0.252-5.309-0.379c2.519,3.214,5.014,6.408,7.544,9.628L77.819,686.952z M86.215,698.137
		c-2.511-3.331-4.965-6.616-7.454-9.929c-1.773-0.281-3.528-0.554-5.293-0.83c2.479,3.16,4.926,6.296,7.43,9.479L86.215,698.137z
		 M94.584,709.256c-2.478-3.276-4.895-6.499-7.336-9.745l-5.263-1.266c2.438,3.102,4.865,6.195,7.333,9.319L94.584,709.256z
		 M103.024,720.344c-2.406-3.171-4.865-6.385-7.279-9.561l-5.198-1.67c2.41,3.04,4.865,6.117,7.268,9.153L103.024,720.344z
		 M111.415,731.365c-2.357-3.102-4.739-6.22-7.098-9.322L99.192,720c2.357,2.969,4.736,5.958,7.092,8.929L111.415,731.365z
		 M119.744,742.307l-6.882-9.036l-5.028-2.387c2.292,2.888,4.587,5.777,6.886,8.67L119.744,742.307z M127.983,753.135
		c-2.217-2.908-4.408-5.794-6.61-8.688l-4.895-2.679c2.208,2.779,4.403,5.554,6.632,8.347L127.983,753.135z M136.127,763.831
		c-2.118-2.768-4.192-5.505-6.283-8.256l-4.718-2.916c2.097,2.644,4.18,5.277,6.313,7.95L136.127,763.831z M144.189,774.391
		c-2-2.604-3.967-5.184-5.935-7.766l-4.486-3.083c2.005,2.51,4.045,5.046,6.061,7.563L144.189,774.391z M152.328,784.936
		c-1.848-2.406-3.729-4.834-5.6-7.257l-4.084-3.077c1.897,2.355,3.802,4.713,5.68,7.053L152.328,784.936z M160.311,795.273
		c-1.662-2.158-3.334-4.32-5.007-6.483l-3.631-2.974l5.109,6.345L160.311,795.273z M168.052,805.3l-4.214-5.458l-3.006-2.65
		l4.345,5.397L168.052,805.3z M175.415,814.835c-1.04-1.343-2.07-2.68-3.101-4.016l-2.118-1.998c1.084,1.35,2.17,2.699,3.266,4.054
		L175.415,814.835z M182.149,823.558l-1.461-1.893l-0.785-0.784c0.547,0.676,1.085,1.348,1.634,2.029L182.149,823.558z
		 M4591.45,449.935c1.953-4.269,3.913-8.502,5.875-12.706c-4.311,7.923-8.605,15.967-12.873,24.156
		C4586.779,457.536,4589.109,453.714,4591.45,449.935z M4578.334,479.228c3.136-7.154,6.283-14.227,9.443-21.218
		c-3.78,6.201-7.544,12.498-11.294,18.874c-3.425,6.74-6.84,13.562-10.242,20.467
		C4570.26,491.222,4574.286,485.178,4578.334,479.228z M4565.47,509.155c3.461-8.202,6.927-16.319,10.409-24.326
		c-4.556,6.772-9.094,13.653-13.616,20.645c-3.793,7.788-7.571,15.664-11.338,23.649
		C4555.756,522.354,4560.605,515.694,4565.47,509.155z M4552.826,539.686c3.604-8.852,7.217-17.594,10.842-26.24
		c-5.14,6.964-10.263,14.053-15.367,21.265c-3.939,8.407-7.866,16.914-11.781,25.53
		C4541.937,553.274,4547.373,546.409,4552.826,539.686z M4540.412,570.689c3.655-9.274,7.321-18.438,10.999-27.504
		c-5.625,6.973-11.232,14.072-16.82,21.313c-3.999,8.844-7.99,17.789-11.97,26.842
		C4528.535,584.33,4534.46,577.434,4540.412,570.689z M4528.159,602.223c3.675-9.588,7.354-19.083,11.042-28.465
		c-6.064,6.908-12.109,13.941-18.137,21.125c-4.023,9.175-8.037,18.463-12.044,27.844
		C4515.384,615.762,4521.762,608.912,4528.159,602.223z M4516.017,634.3c3.696-9.886,7.395-19.676,11.1-29.361
		c-6.486,6.81-12.956,13.761-19.407,20.85c-4.024,9.444-8.04,18.996-12.054,28.635
		C4502.429,647.573,4509.218,640.874,4516.017,634.3z M4504.014,666.762c3.699-10.112,7.401-20.123,11.102-30.046
		c-6.886,6.68-13.754,13.504-20.607,20.467c-4.027,9.688-8.048,19.475-12.069,29.352
		C4489.618,679.806,4496.811,673.213,4504.014,666.762z M4492.136,699.582c3.683-10.271,7.365-20.455,11.05-30.544
		c-7.268,6.525-14.522,13.191-21.763,19.998c-4.015,9.888-8.031,19.859-12.049,29.926
		C4476.95,712.366,4484.534,705.892,4492.136,699.582z M4480.319,732.792c3.686-10.448,7.371-20.815,11.053-31.089
		c-7.649,6.37-15.285,12.899-22.913,19.559c-4.013,10.07-8.026,20.222-12.044,30.463
		C4464.373,745.281,4472.338,738.948,4480.319,732.792z M4468.545,766.367c3.696-10.613,7.388-21.143,11.073-31.594
		c-8.023,6.207-16.036,12.587-24.039,19.083c-4.013,10.237-8.026,20.563-12.047,30.961
		C4451.864,778.538,4460.2,772.36,4468.545,766.367z M4456.802,800.293c3.704-10.758,7.403-21.449,11.094-32.052
		c-8.389,6.033-16.766,12.249-25.135,18.571c-4.019,10.398-8.04,20.872-12.071,31.421
		C4439.39,812.124,4448.091,806.117,4456.802,800.293z M4445.061,834.538c3.721-10.898,7.431-21.719,11.132-32.473
		c-8.746,5.862-17.485,11.899-26.22,18.046c-4.026,10.543-8.058,21.154-12.1,31.841
		C4426.934,846.018,4435.993,840.191,4445.061,834.538z M4433.312,869.072c3.737-11.017,7.46-21.966,11.173-32.844
		c-9.098,5.684-18.192,11.535-27.287,17.501c-4.034,10.668-8.08,21.406-12.135,32.209
		C4414.479,880.183,4423.896,874.551,4433.312,869.072z M4421.53,903.869c3.759-11.12,7.501-22.181,11.23-33.172
		c-9.447,5.505-18.892,11.159-28.339,16.942c-4.048,10.781-8.11,21.632-12.185,32.538
		C4402.004,914.604,4411.768,909.173,4421.53,903.869z M4409.711,938.891c3.782-11.211,7.546-22.368,11.294-33.464
		c-9.789,5.327-19.58,10.779-29.375,16.376c-4.069,10.884-8.15,21.827-12.246,32.827
		C4389.499,949.24,4399.607,944.021,4409.711,938.891z M4397.834,974.115l6.454-19.14l4.915-14.575
		c-10.131,5.148-20.265,10.392-30.406,15.807c-4.1,11.012-8.218,22.08-12.355,33.197
		C4376.914,984.179,4387.379,979.074,4397.834,974.115z M4385.861,1009.586c3.848-11.385,7.674-22.722,11.479-34.008
		c-10.48,4.98-20.971,10.112-31.468,15.355l-0.863,2.32c-3.839,10.322-7.698,20.69-11.575,31.101
		C4364.255,1019.309,4375.063,1014.371,4385.861,1009.586z M4373.779,1045.275c3.889-11.463,7.755-22.883,11.595-34.252
		c-10.818,4.801-21.65,9.75-32.493,14.814c-4.156,11.161-8.332,22.369-12.534,33.622
		C4351.507,1054.595,4362.648,1049.888,4373.779,1045.275z M76.176,676.188c-2.614-3.619-5.206-7.217-7.812-10.828
		c-1.791,0.027-3.539,0.07-5.325,0.098c2.592,3.451,5.171,6.891,7.771,10.348C72.607,675.936,74.374,676.055,76.176,676.188z
		 M84.724,688.038c-2.584-3.575-5.138-7.124-7.715-10.694c-1.792-0.133-3.544-0.247-5.327-0.38
		c2.562,3.417,5.106,6.811,7.679,10.232C81.158,687.479,82.925,687.751,84.724,688.038z M93.226,699.822
		c-2.56-3.534-5.063-7.018-7.6-10.534c-1.789-0.288-3.54-0.555-5.32-0.837c2.527,3.364,5.016,6.7,7.571,10.086
		C89.667,698.968,91.429,699.388,93.226,699.822z M101.703,711.541c-2.53-3.478-4.998-6.905-7.492-10.353
		c-1.783-0.434-3.526-0.847-5.301-1.275c2.49,3.302,4.968,6.596,7.484,9.924C98.17,710.41,99.92,710.967,101.703,711.541z
		 M110.254,723.229c-2.459-3.375-4.981-6.799-7.449-10.181c-1.764-0.568-3.491-1.12-5.247-1.686
		c2.463,3.243,4.973,6.527,7.433,9.766L110.254,723.229z M118.759,734.849c-2.419-3.307-4.863-6.64-7.282-9.948l-5.193-2.073
		c2.416,3.178,4.854,6.375,7.271,9.551L118.759,734.849z M127.201,746.391c-2.363-3.227-4.724-6.455-7.081-9.677l-5.115-2.428
		c2.357,3.099,4.717,6.199,7.081,9.304L127.201,746.391z M135.568,757.824c-2.295-3.126-4.563-6.233-6.84-9.346l-5.009-2.744
		c2.28,2.996,4.549,5.987,6.851,9L135.568,757.824z M143.842,769.137c-2.211-3.005-4.367-5.968-6.548-8.949l-4.865-3.013
		c2.184,2.872,4.346,5.728,6.565,8.627L143.842,769.137z M152.055,780.326c-2.102-2.852-4.178-5.68-6.253-8.51
		c-1.572-1.079-3.112-2.144-4.678-3.221c2.103,2.75,4.237,5.519,6.357,8.28L152.055,780.326z M160.361,791.516
		c-1.978-2.677-3.991-5.378-5.988-8.069l-4.356-3.286c2.018,2.615,4.047,5.235,6.047,7.833
		C157.499,789.172,158.922,790.337,160.361,791.516z M168.544,802.533c-1.826-2.461-3.664-4.934-5.498-7.403
		c-1.344-1.099-2.662-2.183-4.004-3.28l5.572,7.219L168.544,802.533z M176.538,813.304l-4.857-6.545
		c-1.188-1.044-2.352-2.076-3.537-3.122l4.957,6.424L176.538,813.304z M184.26,823.704c-1.342-1.806-2.674-3.6-4.007-5.398
		c-0.972-0.912-1.924-1.816-2.892-2.728c1.372,1.78,2.741,3.556,4.129,5.346L184.26,823.704z M191.558,833.535
		c-0.947-1.272-1.881-2.534-2.817-3.798l-1.981-1.987c0.979,1.275,1.957,2.542,2.953,3.826L191.558,833.535z M198.146,842.408
		c-0.354-0.477-0.701-0.944-1.052-1.419l-0.476-0.504c0.444,0.569,0.906,1.153,1.35,1.722L198.146,842.408z M3818.824,1353.614
		c-10.835,6.09-21.669,12.189-32.508,18.296c-478.975,389.868-976.4,762.583-1520.899,367.943
		C1575.454,1239.781,678.214,898.628,104.566,713.614c2.513,3.446,5.082,6.932,7.59,10.375
		c583.018,233.1,1497.276,629.41,2205.604,1077.86C2873.99,2154.001,3357.462,1758.232,3818.824,1353.614z M3856.408,1332.53
		c-10.972,6.137-21.949,12.298-32.933,18.469c-462.845,406.077-947.807,805.365-1506.301,451.779
		C1609.578,1354.794,696.431,958.833,113.379,725.659c2.471,3.384,4.969,6.786,7.442,10.17
		c592.372,281.273,1522.619,732.586,2248.635,1128.905C2939.783,2176.07,3410.998,1753.471,3856.408,1332.53z M3893.493,1311.864
		c-11.056,6.139-22.118,12.302-33.185,18.487c-446.62,422.188-919.017,847.792-1491.376,535.349
		C1643.699,1469.807,714.635,1019.024,122.184,737.694c2.417,3.305,4.836,6.613,7.263,9.928
		c601.729,329.456,1547.984,835.814,2291.702,1180.002C3005.38,2198.003,3464.185,1748.977,3893.493,1311.864z M3930.266,1291.52
		c-11.121,6.12-22.253,12.28-33.385,18.463c-430.319,438.212-890.086,889.885-1476.191,618.64
		c-742.875-343.798-1687.865-849.42-2289.717-1178.917c2.349,3.214,4.684,6.412,7.054,9.639
		c611.084,377.647,1573.384,939.123,2334.813,1231.169C3070.836,2219.871,3517.153,1744.706,3930.266,1291.52z M3966.716,1271.589
		c-11.15,6.064-22.309,12.162-33.474,18.298c-413.963,454.163-861.062,931.682-1460.792,701.657
		C1711.912,1699.841,750.994,1139.367,139.754,761.709c2.262,3.091,4.5,6.166,6.795,9.287
		c620.441,425.85,1598.813,1042.515,2377.984,1282.411C3136.112,2241.707,3569.88,1740.735,3966.716,1271.589z M4002.979,1251.992
		c-11.189,5.999-22.389,12.057-33.594,18.147c-397.559,470.028-831.962,973.12-1445.173,784.319
		C1746.003,1814.859,769.143,1199.505,148.51,773.676c2.192,2.981,4.413,5.979,6.618,8.971
		c629.798,474.06,1624.206,1145.93,2421.095,1333.656C3201.257,2263.546,3622.461,1737.021,4002.979,1251.992z M4039.026,1232.838
		c-11.208,5.908-22.421,11.862-33.642,17.871c-381.133,485.83-802.856,1014.266-1429.412,866.666
		C1780.176,1929.904,787.478,1259.758,157.445,785.767c2.124,2.859,4.261,5.727,6.369,8.575
		c639.155,522.278,1649.536,1249.323,2464.101,1384.86C3266.225,2285.412,3674.862,1733.652,4039.026,1232.838z M4074.974,1214.045
		c-11.238,5.811-22.486,11.7-33.74,17.629c-364.686,501.552-773.754,1055.058-1413.499,948.611
		c-813.343-135.33-1821.803-860.179-2461.239-1382.328c1.988,2.676,3.98,5.356,5.963,8.03
		c648.518,570.503,1674.89,1352.775,2507.146,1436.116C3331.05,2307.337,3727.173,1730.582,4074.974,1214.045z M4110.775,1195.753
		c-11.248,5.689-22.507,11.436-33.778,17.253c-348.242,517.213-744.711,1095.557-1397.502,1030.191
		C1848.63,2159.994,824.437,1380.507,175.593,810.21c1.816,2.447,3.628,4.891,5.452,7.344
		c657.874,618.738,1700.274,1456.317,2550.25,1487.451C3395.683,2329.344,3779.345,1727.918,4110.775,1195.753z M4146.55,1177.866
		c-11.281,5.56-22.578,11.219-33.881,16.931c-331.809,532.794-715.753,1135.688-1381.412,1111.306
		c-848.36-31.077-1888.247-865.118-2546.499-1483.55c1.588,2.146,3.176,4.287,4.781,6.441
		C856.768,1495.99,1915.254,2388.988,2782.991,2367.91C3460.169,2351.461,3831.458,1725.604,4146.55,1177.866z M4182.235,1160.542
		c-11.297,5.41-22.604,10.89-33.926,16.463c-315.407,548.32-686.925,1175.525-1365.294,1192.001
		C1917.21,2390.038,861.687,1501.571,194.018,835.029c1.288,1.738,2.574,3.476,3.882,5.229
		c676.575,715.274,1751.224,1663.873,2636.785,1590.558C3524.448,2373.711,3883.456,1723.769,4182.235,1160.542z M4217.951,1143.679
		c-11.335,5.254-22.687,10.63-34.049,16.065c-299.043,563.773-658.236,1214.971-1349.127,1272.169
		c-883.173,73.117-1954.219-869.552-2631.311-1584.17c0.933,1.251,1.915,2.533,2.854,3.79
		c685.924,763.56,1776.704,1767.76,2680.063,1642.193C3588.556,2396.121,3935.431,1722.334,4217.951,1143.679z M4253.641,1127.457
		c-11.359,5.075-22.729,10.232-34.115,15.499c-282.741,579.161-629.758,1254.106-1332.993,1351.858
		c-900.019,125.103-1985.87-870.48-2672.45-1632.986l1.058,1.405c695.294,811.8,1801.956,1871.206,2722.937,1693.401
		C3652.439,2418.72,3987.322,1721.449,4253.641,1127.457z M4289.407,1111.766c-11.402,4.888-22.827,9.914-34.262,15.016
		c-266.505,594.472-601.5,1292.825-1316.861,1430.932c-914.771,176.607-2012.573-866.56-2708.896-1676.132
		c704.995,859.114,1824.209,1967.412,2760.392,1737.964C3716.132,2441.525,4039.205,1721.035,4289.407,1111.766z M4325.204,1096.8
		c-11.438,4.68-22.89,9.452-34.362,14.36c-250.355,609.715-573.514,1331.205-1300.805,1509.454
		C2060.893,2848.335,951.761,1759.355,245.673,903.092c714.803,905.858,1845.369,2059.932,2795.807,1779.364
		C3779.573,2464.573,4091.028,1721.257,4325.204,1096.8z M4361.132,1082.453c-11.497,4.458-23.014,9.071-34.543,13.78
		c-234.303,624.88-545.818,1369.134-1284.798,1587.279C2099.171,2961.77,979.847,1830.111,263.935,927.816
		c724.677,951.959,1865.382,2148.633,2829.248,1817.552C3842.792,2487.885,4142.861,1722.026,4361.132,1082.453z M4327.12,1094.818
		c11.511-4.693,23.005-9.287,34.479-13.731c3.931-11.515,7.83-22.989,11.708-34.415c-11.151,4.629-22.315,9.347-33.496,14.224
		C4335.605,1072.162,4331.376,1083.471,4327.12,1094.818z M4291.439,1109.704c11.448-4.892,22.878-9.653,34.294-14.317
		c4.249-11.331,8.473-22.624,12.674-33.873c-11.103,4.857-22.22,9.867-33.35,14.961
		C4300.542,1087.51,4296.001,1098.586,4291.439,1109.704z M4255.824,1125.27c11.408-5.084,22.806-10.089,34.182-14.962
		c4.556-11.095,9.086-22.152,13.597-33.165c-11.042,5.061-22.091,10.201-33.158,15.477
		C4265.593,1103.466,4260.719,1114.353,4255.824,1125.27z M4220.291,1141.392c11.357-5.252,22.7-10.392,34.029-15.448
		c4.887-10.9,9.752-21.765,14.595-32.595c-11.001,5.258-22.023,10.651-33.049,16.11
		C4230.692,1120.073,4225.505,1130.71,4220.291,1141.392z M4184.773,1158.104c11.327-5.413,22.641-10.757,33.94-15.992
		c5.2-10.652,10.377-21.265,15.541-31.852c-10.954,5.428-21.912,10.931-32.885,16.539
		C4195.857,1137.202,4190.323,1147.639,4184.773,1158.104z M4149.292,1175.297c11.283-5.549,22.556-11.008,33.813-16.395
		c5.539-10.443,11.062-20.859,16.565-31.24c-10.923,5.596-21.861,11.304-32.803,17.07l-2.869,4.991L4149.292,1175.297z
		 M4113.79,1192.994c11.259-5.681,22.508-11.306,33.742-16.839l15.513-26.979l2.006-3.486
		c-10.875,5.736-21.762,11.539-32.655,17.424l-7.005,11.252L4113.79,1192.994z M4078.272,1211.114
		c11.219-5.788,22.43-11.508,33.627-17.164l12.557-20.163l5.994-9.628c-10.848,5.868-21.709,11.826-32.574,17.834l-10.052,14.931
		L4078.272,1211.114z M4042.701,1229.656c11.191-5.89,22.375-11.732,33.548-17.503l10.664-15.838l8.852-13.149
		c-10.802,5.98-21.615,12.018-32.436,18.12l-11.814,16.249L4042.701,1229.656z M4007.067,1248.566
		c11.15-5.966,22.291-11.883,33.425-17.746l10.131-13.932l10.404-14.308c-10.77,6.082-21.55,12.227-32.335,18.417l-12.038,15.347
		L4007.067,1248.566z M3971.344,1267.818c11.115-6.033,22.221-12.029,33.318-17.973l11.127-14.18l10.358-13.205
		c-10.723,6.161-21.452,12.368-32.189,18.621l-10.534,12.457L3971.344,1267.818z M3935.527,1287.381
		c11.059-6.071,22.107-12.111,33.152-18.111l13.906-16.442l8.54-10.102c-10.667,6.22-21.344,12.484-32.024,18.786l-7.127,7.817
		L3935.527,1287.381z M3899.6,1307.214c10.991-6.099,21.974-12.167,32.955-18.203l18.605-20.421l4.714-5.173
		c-10.596,6.255-21.2,12.549-31.81,18.87l-1.628,1.659C3914.831,1291.693,3907.219,1299.451,3899.6,1307.214z M3863.563,1327.277
		c10.886-6.082,21.769-12.146,32.649-18.181c8.059-8.21,16.111-16.414,24.153-24.605c-10.498,6.258-21.004,12.548-31.51,18.859
		C3880.431,1311.32,3872,1319.297,3863.563,1327.277z M3827.474,1347.491c10.735-6.027,21.467-12.042,32.189-18.038
		c8.28-7.827,16.549-15.651,24.813-23.468c-10.349,6.22-20.707,12.465-31.066,18.723
		C3844.771,1332.3,3836.128,1339.898,3827.474,1347.491z M3791.343,1367.814c10.502-5.912,20.998-11.821,31.492-17.716
		c8.423-7.389,16.841-14.782,25.251-22.171c-10.122,6.117-20.249,12.25-30.379,18.395
		C3808.923,1353.49,3800.134,1360.654,3791.343,1367.814z M3602.613,1474.848c-531.318,293.445-1062.792,525.739-1521.629,36.767
		C2553.113,2026.215,3078.977,1785.262,3602.613,1474.848z M3657.516,1444.335c-7.864,4.394-15.725,8.779-23.588,13.153
		c-542.211,324.044-1088.015,588.121-1575.505,30.66C1439.115,779.953,605.734,657.83,69.687,665.339
		c2.636,3.651,5.258,7.289,7.902,10.949c545.593,40.496,1395.816,217.233,2033.365,874.023
		C2607.604,2061.942,3135.982,1780.652,3657.516,1444.335z M3701.099,1419.91c-9.528,5.356-19.057,10.705-28.585,16.041
		c-526.579,340.617-1060.513,632.098-1562.346,115.126C1473.207,894.896,623.872,718.056,78.422,677.443
		c2.611,3.617,5.195,7.208,7.817,10.834c554.948,88.634,1421.178,320.192,2076.422,924.916
		C2675.105,2086.13,3193.518,1774.188,3701.099,1419.91z M3741.603,1397.108c-10.222,5.76-20.448,11.517-30.676,17.271
		c-510.871,357.159-1032.835,676.004-1549.01,199.623C1507.29,1009.846,641.988,778.262,87.138,689.526
		c2.576,3.566,5.112,7.098,7.712,10.687c564.305,136.778,1446.565,423.208,2119.513,975.865
		C2741.761,2109.204,3249.01,1768.509,3741.603,1397.108z M3760.222,1386.616l-11.392,6.417
		c-494.993,373.572-1004.769,719.481-1535.163,283.894C1541.366,1124.801,660.079,838.447,95.832,701.577
		c2.538,3.503,5.065,7.001,7.633,10.531c573.66,184.932,1471.943,526.283,2162.6,1026.855
		c541.948,392.795,1037.478,24.264,1514.601-363.871L3760.222,1386.616z M3755.425,1388.055l4.259-2.401
		c8.675-4.891,17.347-9.779,26.017-14.662c8.416-6.849,16.823-13.702,25.228-20.555c-9.741,5.909-19.489,11.826-29.235,17.748
		C3772.943,1374.812,3764.187,1381.438,3755.425,1388.055z M3720.148,1407.927c9.368-5.273,18.733-10.549,28.098-15.824
		c8.091-6.11,16.178-12.224,24.264-18.341c-9.059,5.505-18.124,11.011-27.188,16.515
		C3736.933,1396.165,3728.542,1402.051,3720.148,1407.927z M3687.123,1426.492c7.744-4.347,15.489-8.696,23.23-13.051
		c6.975-4.875,13.945-9.755,20.916-14.642c-7.503,4.55-15.006,9.097-22.513,13.64
		C3701.545,1417.132,3694.334,1421.815,3687.123,1426.492z M3664.177,1439.35c2.585-1.443,5.169-2.886,7.753-4.333
		c2.584-1.67,5.168-3.337,7.752-5.01C3674.514,1433.121,3669.345,1436.243,3664.177,1439.35z M7.155,659.445
		c-1.689,0.214-3.396,0.42-5.079,0.636c2.195,1.849,4.441,3.732,6.665,5.603c1.692-0.055,3.415-0.1,5.112-0.155
		C11.616,663.5,9.36,661.457,7.155,659.445z M13.711,658.632c-1.715,0.208-3.415,0.424-5.122,0.635
		c2.254,2.054,4.557,4.142,6.84,6.215l5.158-0.154C18.292,663.091,15.973,660.843,13.711,658.632z M20.253,657.813
		c-1.732,0.209-3.428,0.43-5.155,0.643c2.308,2.256,4.668,4.548,7.006,6.824c1.737-0.05,3.45-0.111,5.193-0.156
		C24.946,662.686,22.573,660.227,20.253,657.813z M26.791,656.998c-1.751,0.209-3.439,0.436-5.182,0.647
		c2.357,2.455,4.771,4.951,7.163,7.433c1.755-0.047,3.457-0.114,5.22-0.157C31.589,662.277,29.161,659.615,26.791,656.998z
		 M33.377,656.251c-1.736,0.201-3.531,0.379-5.26,0.582c2.408,2.659,4.87,5.36,7.314,8.045c1.745-0.043,3.537-0.068,5.287-0.108
		C38.267,661.927,35.794,659.066,33.377,656.251z M39.969,655.523c-1.749,0.198-3.534,0.382-5.274,0.583
		c2.451,2.855,4.96,5.754,7.444,8.636c1.754-0.037,3.556-0.058,5.317-0.094C44.956,661.603,42.434,658.542,39.969,655.523z
		 M46.552,654.795c-1.761,0.195-3.534,0.387-5.289,0.584c2.497,3.056,5.052,6.158,7.584,9.245c1.767-0.038,3.556-0.065,5.33-0.098
		C51.631,661.278,49.063,658.014,46.552,654.795z M53.127,654.069c-1.775,0.194-3.534,0.389-5.301,0.585
		c2.541,3.257,5.138,6.561,7.715,9.847c1.78-0.035,3.558-0.068,5.347-0.098C58.296,660.956,55.681,657.488,53.127,654.069z
		 M59.694,653.342c-1.786,0.192-3.531,0.395-5.308,0.588c2.584,3.456,5.224,6.964,7.844,10.45c1.795-0.029,3.556-0.072,5.355-0.097
		C64.952,660.631,62.292,656.961,59.694,653.342z M2006.678,1425.223C1405.021,665.014,587.595,597.587,60.936,653.207
		c2.628,3.657,5.312,7.362,7.975,11.052c533.114-7.569,1360.742,113.107,1979.476,811.103
		C2034.419,1459.296,2020.505,1442.69,2006.678,1425.223z M0,658.331l0.934,0.79c1.708-0.22,3.442-0.428,5.155-0.645L0,652.92
		v-1.487l7.522,6.866c1.727-0.214,3.45-0.434,5.184-0.645C8.448,653.487,4.214,649.341,0,645.21v-1.535
		c4.671,4.583,9.368,9.182,14.095,13.805c1.745-0.213,3.46-0.438,5.208-0.652C12.809,650.06,6.389,643.347,0,636.662v-1.586
		c6.832,7.155,13.705,14.339,20.66,21.584c1.761-0.211,3.463-0.442,5.23-0.653c-8.73-9.641-17.353-19.2-25.89-28.691v-1.633
		c8.967,9.972,18.038,20.025,27.216,30.16c1.748-0.206,3.541-0.393,5.292-0.597C21.517,642.438,10.694,629.763,0,617.195v-1.689
		c11.121,13.072,22.383,26.261,33.829,39.595c1.751-0.203,3.553-0.387,5.311-0.587C25.874,638.268,12.834,622.209,0,606.327v-1.742
		c13.25,16.401,26.723,32.996,40.437,49.784c1.764-0.201,3.55-0.389,5.323-0.588C30.209,633.845,14.961,614.163,0,594.742v-1.792
		c15.37,19.962,31.039,40.191,47.034,60.691c1.775-0.197,3.547-0.394,5.33-0.59c-17.845-23.88-35.29-47.41-52.364-70.596v-1.844
		c17.474,23.736,35.338,47.837,53.622,72.302c1.786-0.192,3.545-0.399,5.336-0.59C38.824,624.279,19.163,596.656,0,569.511v-1.894
		c19.561,27.712,39.627,55.918,60.203,84.568c526.89-55.763,1345.127,11.453,1947.335,772.356
		c483.564,610.993,1055.65,349.236,1625.922,31.945c24.89-14.874,49.771-29.881,74.641-44.933
		c23.594-15.353,47.172-30.777,70.729-46.191c8.753-6.164,17.502-12.33,26.247-18.491c13.594-9.582,27.183-19.153,40.759-28.708
		c21.253-16.116,42.478-32.19,63.675-48.162c20.242-16.466,40.456-32.842,60.641-49.078c19.315-16.798,38.597-33.467,57.858-49.951
		c18.354-17.026,36.679-33.898,54.978-50.533c17.591-17.373,35.158-34.531,52.703-51.432c16.684-17.514,33.35-34.797,49.999-51.771
		c15.976-17.795,31.932-35.288,47.883-52.471c15.315-18.092,30.623-35.871,45.928-53.271c14.509-18.152,29.013-35.993,43.524-53.387
		c13.767-18.235,27.538-36.063,41.327-53.476c13.243-18.571,26.499-36.714,39.788-54.372c12.574-18.649,25.173-36.835,37.812-54.504
		c11.927-18.712,23.888-36.927,35.91-54.589c11.354-18.848,22.759-37.156,34.238-54.871c10.761-18.898,21.586-37.212,32.502-54.902
		c10.218-18.985,20.517-37.351,30.92-55.042c9.655-19.001,19.413-37.337,29.297-54.965c31.082-64.781,63.547-121.398,98.573-167.811
		C4784,146.758,4878.127,93.943,5000,119.655v1.175c-121.537-25.685-215.383,26.938-295.732,133.41
		c-32.189,42.654-62.218,93.954-91.003,152.299c20.146-34.831,40.843-66.681,62.318-95.142
		C4764.87,193.085,4867.591,133.433,5000,162.384v1.177c-132.074-28.925-234.514,30.533-323.537,148.5
		c-24.456,32.405-47.9,69.235-70.676,109.846c-3.263,6.802-6.513,13.693-9.746,20.672c15.881-25.267,32.043-48.942,48.571-70.846
		C4743.729,240.39,4855.999,172.614,5000,205.133v1.177c-143.663-32.493-255.655,35.086-354.512,166.085
		c-18.091,23.975-35.744,50.073-53.073,78.067c-3.599,7.863-7.182,15.821-10.748,23.895c9.3-13.533,18.676-26.599,28.146-39.151
		C4720.171,288.971,4843.132,211.416,5000,247.891v1.183c-156.53-36.456-279.212,40.902-389.306,186.797
		c-10.578,14.015-21.039,28.665-31.401,43.904c-3.713,8.468-7.41,17.044-11.094,25.738c0.698-0.934,1.396-1.872,2.096-2.801
		c123.337-163.438,258.399-252.96,429.706-212.049v1.185c-170.963-40.891-305.746,48.431-428.829,211.53
		c-1.583,2.098-3.166,4.209-4.746,6.336c-3.756,8.913-7.501,17.941-11.232,27.078C4685.198,377.587,4825.915,290.847,5000,333.446
		v1.173c-174.765-42.833-315.833,44.985-446.228,205.647c-3.755,9.237-7.503,18.591-11.24,28.046
		c135.981-153.313,281.661-236.07,457.467-192.07v1.173c-176.342-44.206-322.327,39.405-458.645,193.872
		c-3.758,9.537-7.509,19.183-11.253,28.93c141.866-147.608,292.403-226.522,469.898-181.17v1.175
		c-177.933-45.534-328.743,34.081-470.908,182.631c-3.755,9.794-7.502,19.687-11.246,29.686
		C4665.52,490.434,4820.828,415.204,5000,461.867v1.178c-179.538-46.821-335.097,29.008-483.054,171.91
		c-3.731,9.982-7.461,20.06-11.184,30.237C4659.169,528.414,4819.163,456.743,5000,504.689v1.19
		c-181.146-48.073-341.385,24.12-495.077,161.594c-3.707,10.14-7.411,20.383-11.121,30.705
		c159.09-131.635,323.71-199.855,506.198-150.66v1.189c-182.753-49.32-347.604,19.357-506.958,151.592
		c-3.702,10.324-7.409,20.735-11.118,31.234C4646.652,604.849,4815.852,539.936,5000,590.354v1.19
		c-184.381-50.538-353.794,14.763-518.775,141.968c-3.704,10.5-7.414,21.083-11.129,31.749
		C4640.434,643.347,4814.171,581.595,5000,633.209v1.191c-186.029-51.739-359.969,10.335-530.545,132.701
		c-3.708,10.646-7.422,21.378-11.143,32.183C4634.235,681.976,4812.48,623.282,5000,676.071v1.189
		c-187.698-52.914-366.141,6.068-542.292,123.774c-3.715,10.787-7.436,21.638-11.17,32.568
		C4628.036,720.747,4810.767,664.991,5000,718.941v1.189c-189.396-54.067-372.318,1.945-554.035,115.163
		c-3.723,10.904-7.46,21.885-11.205,32.929c187.061-108.555,374.271-161.486,565.24-106.4v1.185
		c-191.119-55.208-378.516-2.041-565.792,106.836c-3.737,11.02-7.49,22.104-11.257,33.25
		c192.63-104.39,384.314-154.602,577.049-98.387v1.183c-192.87-56.337-384.734-5.918-577.576,98.764
		c-3.756,11.116-7.525,22.297-11.316,33.531c198.206-100.351,394.367-147.93,588.893-90.589v1.177
		c-194.645-57.463-390.987-9.697-589.399,90.92l-5.271,15.631l-6.121,18.147c203.796-96.432,404.446-141.452,600.791-82.989v1.175
		c-196.455-58.587-397.278-13.398-601.283,83.278c-3.81,11.295-7.642,22.643-11.491,34.038
		c209.416-92.63,414.574-135.178,612.774-75.599v1.171c-198.303-59.699-403.634-16.991-613.259,75.862
		c-3.848,11.387-7.72,22.827-11.613,34.308C4590.205,955.785,4799.905,915.6,5000,976.279v1.173
		c-200.189-60.801-410.063-20.475-625.346,68.663c-3.883,11.442-7.788,22.932-11.722,34.464
		c220.773-85.331,435.044-123.196,637.068-61.401v1.168c-202.11-61.916-416.555-23.917-637.533,61.599
		c-218.371,639.973-518.489,1406.698-1268.926,1664.466C2115.126,3082.486,954.972,1845.74,231.949,887.333
		c-5.842-7.433-11.625-14.826-17.415-22.227c-5.726-7.002-11.479-14.024-17.15-20.993c-5.615-6.586-11.346-13.248-16.904-19.795
		c-5.217-5.847-10.488-11.727-15.648-17.533c-5.233-5.578-10.369-11.092-15.537-16.63c-5.504-5.554-10.846-11.006-16.29-16.524
		c-5.395-5.13-10.699-10.205-16.057-15.313c-5.301-4.719-10.599-9.436-15.854-14.124c-5.195-4.299-10.482-8.648-15.618-12.911
		c-5.031-3.828-10.118-7.691-15.075-11.479c-5.033-3.49-9.977-6.927-14.926-10.373c-5.063-3.151-9.979-6.226-14.972-9.338
		l-14.666-8.064l-14.492-6.856L0,680.7v-2.784l0.301,0.068L0,677.819v-1.251l4.181,2.301l3.696,0.842l-4.606-2.885L0,676.366v-1.107
		l0.996,0.141L0,674.777v-1.296l3.669,2.297c1.491,0.213,2.944,0.409,4.443,0.626l-5.56-3.893L0,672.382v-1.099l0.863,0.045
		L0,670.725v-1.341l2.928,2.049l4.844,0.268l-6.105-4.707L0,667.049v-1.098l0.301-0.012L0,665.706v-1.383l2.029,1.564
		c1.667-0.057,3.391-0.098,5.065-0.152c-2.173-1.828-4.364-3.666-6.504-5.47L0,660.338V658.331z"/>
</g>
</svg>
